<?xml version='1.0' encoding='utf-8'?>
<svg xmlns="http://www.w3.org/2000/svg" version="1.1" width="600px" height="976px" viewBox="0 0 600 976"> <g id="layer1"> <g> <g style="fill:rgb(0,0,0); fill-opacity:1.0; stroke-linejoin: miter"> <path d="M435.57733,533.7536C435.0244,534.01166,434.50836,534.325,434.43457,534.4356C434.36084,534.56464,434.28717,544.00183,434.28717,555.41125C434.28717,574.9123,434.26868,576.2026,433.97382,576.5712C433.71576,576.86615,433.2918,576.9952,432.07532,577.14264C431.20898,577.23474,430.21362,577.4007,429.86346,577.5113C429.51324,577.6034,428.9234,577.69556,428.5548,577.69556C427.94653,577.69556,426.9696,577.86145,422.4906,578.69086C421.73492,578.8383,420.31567,579.09644,419.35718,579.2623C417.66144,579.5572,417.05322,579.6862,412.26086,580.7553C411.0443,581.0318,409.5514,581.3636,408.94305,581.4741C407.04462,581.8797,402.80524,582.9303,399.91144,583.7413C399.211,583.9256,398.12354,584.23895,397.51526,584.4048C396.90698,584.5707,395.54303,584.95776,394.474,585.2711C393.4049,585.5845,392.2437,585.8978,391.8935,585.97156C391.54327,586.0452,390.91656,586.2112,390.51105,586.3586C390.10553,586.4877,389.313,586.7457,388.76007,586.9116C388.20703,587.0959,386.75092,587.55676,385.53442,587.9253C384.31787,588.31244,381.86646,589.105,380.097,589.7133C378.32745,590.32153,376.5396,590.9114,376.1341,591.04034C375.72858,591.15094,375.32306,591.2984,375.21252,591.3537C375.1203,591.4274,374.73328,591.5564,374.38306,591.66705C374.03284,591.77765,373.16656,592.0725,372.44763,592.3306C370.84412,592.9204,370.51227,592.93884,370.4939,592.3859C370.4939,592.16473,370.47546,584.7182,370.45697,575.8524C370.4386,566.9866,370.34637,559.57684,370.25427,559.3926C369.99622,558.8396,368.44794,559.0792,367.34198,559.8534L366.82587,560.20355L366.82587,577.06885L366.82587,593.9342L366.3651,594.3766C366.1255,594.63464,365.7937,594.83734,365.66467,594.83734C365.5172,594.83734,364.909,595.0586,364.31915,595.3166C362.80774,595.9801,362.64185,596.03546,361.29633,596.51465C360.63275,596.7359,360.02448,596.97546,359.91388,597.0492C359.82178,597.1229,359.02917,597.4547,358.18127,597.76807C357.33337,598.09985,356.0432,598.6159,355.32434,598.92926C354.60547,599.2426,353.8498,599.55597,353.64697,599.6481C352.79913,599.99835,344.56,603.5557,343.878,603.8691C343.47253,604.05334,342.16388,604.6616,340.94733,605.23303C339.74927,605.8044,338.73547,606.2652,338.68018,606.2652C338.33002,606.2652,322.42316,614.06195,316.93042,616.9374C312.74634,619.13074,309.00464,621.12146,306.64532,622.39325C306.0371,622.72504,305.17078,623.2043,304.70996,623.44385C304.2492,623.68353,302.36914,624.73413,300.50745,625.7848C298.6458,626.8354,297.0238,627.64636,296.89478,627.59106C296.34186,627.3699,295.88104,623.62823,295.8626,619.3519C295.8626,617.9327,295.78888,617.1401,295.64142,616.9927C295.32813,616.6793,294.40643,616.7346,293.65076,617.1033L293.0056,617.4166L292.9135,623.62823C292.83972,628.82605,292.78442,629.8951,292.54486,630.1163C292.30518,630.3559,290.40674,631.4802,287.93683,632.8442C287.476,633.10223,285.31946,634.3187,283.14453,635.57214C280.96954,636.8255,278.73926,638.0789,278.2047,638.35535C277.65173,638.63184,277.11725,638.9452,277.00665,639.03735C276.87762,639.1295,276.23248,639.49817,275.56897,639.8668C274.88696,640.2355,273.5598,640.9727,272.6198,641.5257C271.1084,642.392,266.07648,645.23047,263.60657,646.5945C263.14575,646.85254,262.2979,647.3317,261.70807,647.6636C261.11823,648.0138,260.6021,648.2902,260.5653,648.2902C260.52844,648.2902,260.08606,648.52985,259.6068,648.80634C258.79584,649.2856,257.37653,650.0781,254.11406,651.8292C252.69481,652.5849,252.27089,652.67706,252.105,652.2532C251.97594,651.8845,251.68105,649.4146,251.44142,646.6314C250.90688,640.30914,250.68571,637.82086,250.61195,637.3232C250.55666,637.0098,250.3908,635.2219,250.24333,633.3234C249.89314,629.1025,249.83784,628.80756,249.3033,628.43896C248.84251,628.14404,247.95778,628.25464,246.18831,628.8445C245.4879,629.0841,243.99486,629.508,241.67244,630.1716C241.11949,630.319,240.45592,630.5218,240.19789,630.5955C239.64491,630.7798,237.48836,631.4065,234.20747,632.34656C232.89879,632.7336,231.44264,633.15753,230.98186,633.28656C229.48888,633.7474,226.30013,634.6874,225.36009,634.927C224.86244,635.056,223.70122,635.3878,222.77962,635.6643C221.87645,635.94073,220.88115,636.2357,220.56776,636.3094C218.28221,636.9177,216.47588,637.5075,216.32841,637.69183C216.19939,637.8577,216.18095,638.41064,216.27312,639.2954C216.34682,640.03265,216.49431,641.83905,216.58644,643.3136C216.69704,644.78815,216.86296,646.6867,216.97353,647.5529C217.25002,649.80164,218.07945,658.9439,218.44807,663.58887C218.55867,664.9528,218.7246,666.61163,218.81673,667.2568C218.90889,667.97565,218.92732,668.5655,218.81673,668.7498C218.50337,669.3212,210.13527,672.71265,203.05736,675.12726C202.0436,675.45905,200.64275,675.95667,199.9239,676.2148C199.2235,676.47284,198.20973,676.80457,197.67522,676.952C197.1591,677.0995,195.73982,677.5419,194.5049,677.9658C193.28838,678.3713,192.16402,678.70306,192.03499,678.70306C191.88756,678.70306,191.11339,678.9058,190.32082,679.1639C189.04903,679.5878,186.91087,680.19604,185.73125,680.49097C185.47319,680.5463,184.9571,680.28827,184.16454,679.6984C180.90205,677.3023,176.01756,675.56964,172.46019,675.56964C171.55702,675.56964,170.70912,675.4959,170.58012,675.4222C170.4511,675.34845,170.26677,674.5006,170.1562,673.5421C170.04558,672.5837,169.91658,671.66205,169.87971,671.5146C169.82442,671.3672,169.71382,670.5377,169.62166,669.6714C169.5295,668.8051,169.27144,666.75916,169.05028,665.1187C168.84749,663.4598,168.73692,662.00366,168.81065,661.8562C168.88438,661.70874,170.11934,660.4001,171.53859,658.9439C175.05913,655.34973,176.71797,653.34064,178.72707,650.2256C179.81456,648.52985,181.36284,645.69135,181.73149,644.696C181.84209,644.3826,182.10014,643.68225,182.3213,643.1293C183.40883,640.32764,183.88805,638.46594,184.55159,634.55835C184.92024,632.4387,184.97554,631.49866,184.97554,626.35614C184.97554,620.3104,184.90181,619.4072,184.05394,615.02045C183.57469,612.62427,183.07701,610.76263,182.57936,609.6198C182.43193,609.2881,182.3213,608.9378,182.3213,608.8272C182.3213,608.3296,180.92049,605.4726,179.7777,603.611C178.65337,601.7862,176.33092,599.31635,175.28029,598.83716C173.87944,598.19196,172.57079,598.5238,171.05934,599.94305C170.21147,600.73566,167.76003,603.68475,167.76003,603.9244C167.76003,603.9797,167.42824,604.4957,167.04118,605.0856C161.32722,613.65643,159.68678,626.19025,162.0461,643.1293C162.58061,646.9447,162.78337,648.64044,162.78337,649.4699C162.78337,650.2993,162.58061,650.52057,158.47029,654.1885C148.70131,662.9253,144.86745,666.64856,141.66026,670.5008C139.4853,673.11816,138.21349,675.07196,136.99696,677.65247C135.90947,679.9196,134.98787,682.7582,134.69296,684.6935C134.37962,686.6657,134.14,687.8454,133.9741,688.0481C133.77136,688.343,122.52782,688.3983,121.808975,688.1219C121.385056,687.956,121.385056,687.9191,121.550934,687.03436C121.88272,685.4492,121.1823,684.45386,119.2838,683.7166C118.39906,683.3848,117.58803,683.5691,116.887634,684.288C116.3531,684.84094,116.31625,684.97003,116.33467,686.0759C116.37152,687.8454,116.40839,687.7716,115.74484,687.69794L115.13658,687.64264L114.98912,686.1681C114.841675,684.4355,114.34401,682.42633,113.99379,682.0024C113.86478,681.855,113.754166,681.5969,113.754166,681.44946C113.754166,681.173,111.947845,679.0164,111.2843,678.51874C110.39955,677.8368,108.61165,676.91516,107.33983,676.5097C105.404465,675.883,102.787125,675.90137,100.778046,676.565C98.8058,677.2101,97.4787,678.0026,96.151596,679.3298C94.73233,680.749,94.160934,681.7628,93.75543,683.4954C93.57112,684.2511,93.3315,684.9884,93.20247,685.11743C92.94443,685.3939,91.06436,685.228,88.41014,684.6935C85.46103,684.12213,83.96802,683.8641,83.34134,683.8088C82.73308,683.7719,82.69621,683.8088,82.640915,684.3802C82.60405,684.7488,82.677795,684.9884,82.82524,685.0437C83.87587,685.3386,86.493225,685.8179,89.51607,686.2787C91.156525,686.5367,93.16562,686.9975,93.47896,687.1818C94.271515,687.69794,92.26245,687.7901,90.71416,687.3293C90.36394,687.2187,89.57135,687.0528,88.963104,686.97906C87.85719,686.8316,86.16144,686.46295,84.22609,685.94684C82.89897,685.57825,82.5672,685.68884,82.640915,686.4814C82.69621,687.1265,82.84367,687.20026,85.00023,687.5505C85.55318,687.6611,86.47478,687.8454,87.02774,687.9928C88.42859,688.36145,89.810974,688.6564,91.54358,688.9513C93.49739,689.2831,94.75076,689.54114,94.97194,689.6701C95.17471,689.7992,95.19313,690.25995,94.99039,690.389C94.82448,690.4812,93.03659,690.16785,90.52985,689.578C89.57135,689.3568,88.24426,689.0619,87.5807,688.93286C86.91716,688.7854,85.59006,688.47205,84.63159,688.2324C82.788376,687.75323,82.60405,687.7901,82.60405,688.6011C82.60405,689.09875,82.9727,689.31995,84.17079,689.48584C84.686874,689.5595,85.3873,689.7439,85.73749,689.87286C86.3642,690.11255,87.02774,690.2784,89.23959,690.6839C89.79256,690.7945,90.75102,690.99725,91.35927,691.1447C91.96753,691.27374,93.16562,691.56866,94.03192,691.77136C94.898224,691.9741,96.29906,692.2691,97.16536,692.43494C99.358765,692.84045,101.20198,693.1907,103.30321,693.63306C104.29855,693.8358,105.33075,694.0017,105.60722,694.0017C105.902145,694.0017,106.56569,694.1307,107.100235,694.2966C107.91124,694.5362,108.058685,694.62836,108.00337,694.9786C107.948105,695.3472,107.837494,695.3841,106.934326,695.36566C106.38136,695.3472,105.128006,695.1629,104.16954,694.96014C102.40007,694.5546,100.943924,694.2413,98.326584,693.7067C96.188446,693.2644,93.09187,692.54553,92.44678,692.3428C92.13341,692.2322,91.70949,692.1585,91.50673,692.1585C91.30397,692.1585,90.71416,692.0294,90.234924,691.88196C88.723495,691.4212,85.86653,690.6839,83.93117,690.25995L82.788376,689.98346L82.677795,690.4259C82.5119,691.05255,82.71466,691.4212,83.19388,691.4212C83.4335,691.4212,84.11548,691.5871,84.723755,691.78986C85.331985,691.9741,86.3642,692.2691,87.02774,692.43494C87.6913,692.6008,88.649765,692.84045,89.14743,692.9879C89.66353,693.11694,90.8616,693.41187,91.82007,693.63306C92.778534,693.8726,93.958176,694.16754,94.43742,694.2966C94.91664,694.44403,95.45119,694.5546,95.65393,694.5546C95.83826,694.5546,96.354355,694.6652,96.815155,694.8127C97.25752,694.96014,98.45561,695.25507,99.469345,695.47626C100.48314,695.69745,101.81023,695.9739,102.41849,696.12134C103.02675,696.25037,104.02208,696.4531,104.63034,696.58215C105.92056,696.8218,107.30298,697.301,107.30298,697.5038C107.30298,697.5775,107.100235,697.7803,106.86061,697.9277C106.528824,698.1489,106.27077,698.1857,105.80998,698.0567C105.45976,697.96454,104.353836,697.725,103.34009,697.5038C102.326324,697.28253,101.25726,697.04297,100.943924,696.9508C100.64902,696.8586,99.48779,696.58215,98.36345,696.30566C94.6586,695.43933,91.8385,694.68365,90.62198,694.25977C90.19806,694.11224,89.71881,694.0017,89.5345,694.0017C89.350174,694.0017,88.81564,693.8726,88.33641,693.7252C87.875626,693.57776,86.75127,693.246,85.82968,692.9694C84.92648,692.7114,83.986465,692.4165,83.74684,692.3244C82.93584,692.011,82.60405,692.1032,82.60405,692.7114C82.60405,693.3381,82.84367,693.50397,84.299805,693.9095C84.834335,694.057,86.27203,694.46246,87.48854,694.8311C88.70505,695.19977,90.32707,695.6605,91.08278,695.8633C91.8385,696.0845,93.05501,696.41626,93.75543,696.6006C96.31749,697.31946,102.25261,698.8309,103.34009,699.05206C104.9621,699.4023,105.8284,699.71564,105.8284,699.97363C105.8284,700.4529,103.50597,703.531,100.90706,706.4986C99.30347,708.32336,99.008575,708.8026,99.008575,709.5583C99.008575,710.7011,99.838,710.4799,101.75493,708.8394C103.045166,707.7335,108.243,702.55414,109.20146,701.4113C109.88347,700.60034,109.957184,700.60034,115.32091,701.72473C119.2838,702.55414,120.40814,702.7753,122.78589,703.1992C126.84093,703.9181,130.6932,704.5263,133.93727,704.96875C137.43935,705.448,137.54991,705.4848,138.13976,706.5539C138.8033,707.7151,139.8355,709.31866,140.16728,709.6689C140.29631,709.81635,140.79396,710.4614,141.27321,711.06976C143.3007,713.7424,147.42949,716.96796,150.95003,718.6269C151.89006,719.0692,152.73793,719.43787,152.83006,719.43787C152.92226,719.43787,153.27245,719.54846,153.60423,719.6959C157.4381,721.31793,165.08739,721.9262,170.24834,721.0046C171.40959,720.8018,171.75975,720.78345,171.92564,720.9677C172.1284,721.1889,172.60765,723.95374,172.93944,726.90283C173.03157,727.806,173.19746,729.299,173.30806,730.2206C173.40022,731.1238,173.62141,732.61676,173.76888,733.5384C174.21123,735.9898,174.1375,740.37665,173.63985,742.3489C172.3496,747.52826,169.19774,750.7355,164.11049,752.06256C162.1567,752.5787,159.39186,752.56024,157.69615,752.0441C155.83452,751.4727,154.6733,750.66174,154.6733,749.92444C154.6733,749.5558,154.78389,749.5189,156.05568,749.3899C159.24443,749.095,162.19356,746.6988,163.35478,743.47327C164.09203,741.4642,163.81557,737.98047,162.8018,736.3953C161.62215,734.5521,159.81581,733.0407,157.67769,732.1375C156.36903,731.5846,156.07414,731.5293,154.3968,731.51086C151.7426,731.51086,149.8441,732.2481,147.92717,734.0361C145.25453,736.5428,144.25917,740.6716,145.34666,744.7819C145.9918,747.17804,146.28673,747.8969,147.2452,749.3715C149.21742,752.4312,152.51674,754.82733,156.24,755.8964C158.65462,756.59686,160.7743,756.74426,163.33632,756.3941C167.72316,755.80426,170.93034,754.256,173.67668,751.39905C176.31248,748.65265,177.52898,745.7772,178.02669,741.1876C178.30315,738.7362,178.30315,738.25696,178.00822,735.1051C177.84236,733.22504,177.54744,730.53394,177.36311,729.1147C177.16035,727.69543,176.92076,725.7785,176.79173,724.8753C176.68114,723.95374,176.47838,722.51605,176.36778,721.6313C176.23875,720.76495,176.16502,719.93555,176.20189,719.7881C176.22032,719.65906,177.47371,718.94025,178.96669,718.20294C180.4597,717.4841,182.43193,716.3413,183.3351,715.69617C185.4179,714.18475,187.90623,711.77014,188.95686,710.22186C189.10432,710.0007,189.36235,709.632,189.52824,709.4108C189.6941,709.20807,190.04433,708.59985,190.32082,708.08374C191.16869,706.46173,191.03966,706.4986,195.86885,706.07465C203.37068,705.4295,212.36552,704.2499,218.44807,703.12555C219.20381,702.9781,220.5309,702.7384,221.39723,702.591C222.26353,702.4251,224.25417,702.0381,225.8209,701.72473C227.38762,701.4113,229.10182,701.0796,229.59944,700.9874C230.11555,700.9137,230.85286,700.74774,231.25838,700.65564C231.99565,700.4529,235.35027,699.69714,236.88014,699.36536C238.20723,699.07043,246.3726,697.02454,248.4001,696.49C249.4139,696.2135,250.53828,695.9186,250.88847,695.84485C251.23863,695.7527,252.28926,695.47626,253.19246,695.19977C255.16469,694.62836,256.67615,694.2044,257.43182,694.0017C258.7036,693.6699,264.8415,691.9188,266.46356,691.4212C267.18237,691.21844,268.17773,690.9235,268.67535,690.77606C271.1637,690.09406,272.36176,689.7623,272.41705,689.7623C272.43555,689.7623,272.45392,689.965,272.45392,690.22314C272.45392,690.4812,272.38025,690.6839,272.30646,690.6839C272.03003,690.6839,270.8319,693.1907,270.44482,694.57306C270.2237,695.3288,270.0578,696.49,270.0578,697.15356C270.0578,698.3516,270.51855,700.3055,271.0346,701.3192C271.7351,702.66473,273.89166,704.34204,275.77167,704.9872C277.22784,705.4848,280.82208,705.448,282.86804,704.8766C284.69275,704.39734,287.6604,702.9412,289.13495,701.83527C290.84906,700.54504,293.07935,698.2779,293.9088,696.9508C295.43872,694.5546,295.67828,693.41187,295.82574,687.69794C295.9179,684.78564,296.0285,683.0715,296.15753,682.94244C296.26813,682.83185,296.80267,682.6291,297.3556,682.4816C297.90857,682.3526,298.9776,682.0762,299.73334,681.855C300.489,681.6522,301.98206,681.26514,303.05115,681.0071C304.12012,680.749,305.39197,680.39886,305.88965,680.2514C306.36884,680.1224,307.06927,679.99335,307.40106,679.99335C308.11987,679.99335,308.19366,680.2698,307.75122,681.33887C307.40106,682.18677,307.40106,683.2005,307.75122,683.4954C308.39636,684.0299,309.29956,683.10834,310.62665,680.5647C311.4745,678.9611,311.54828,678.9058,313.09656,678.5372C322.03607,676.3806,334.109,674.5006,344.24664,673.6343C345.97925,673.4868,348.54132,673.2656,349.96063,673.1366C353.42584,672.8417,371.98688,672.8417,375.21252,673.1366C376.5396,673.2656,379.0464,673.4868,380.8158,673.6343C385.31317,674.0029,388.63098,674.38995,394.10535,675.2194C396.72266,675.6065,397.55206,675.75397,402.30762,676.694C403.92963,677.0073,405.62537,677.3391,406.08618,677.41284C408.427,677.81836,420.79492,680.98865,422.4906,681.6338C422.74872,681.72595,423.57813,681.984,424.3338,682.20514C427.00647,682.99774,433.9922,685.3755,436.99664,686.5367C439.3006,687.42145,439.52185,687.51355,441.9364,688.49054C444.9593,689.70703,448.84845,691.3659,450.87598,692.3059C451.74225,692.69305,453.03253,693.3013,453.73297,693.63306C457.67737,695.4578,464.77368,699.07043,468.2021,700.9874C469.16052,701.54034,470.48767,702.2592,471.15118,702.62787C471.8147,702.9781,472.64417,703.45734,472.9944,703.67847C473.3446,703.89966,473.76855,704.13934,473.91595,704.19464C474.06342,704.2683,474.4505,704.4895,474.74542,704.69226C475.05872,704.89496,475.55646,705.18994,475.85132,705.3558C476.75452,705.85345,484.5144,710.71954,486.76312,712.19403C487.88745,712.93134,488.90125,713.5396,489.01184,713.5396C489.1593,713.5396,489.2146,712.06506,489.2146,708.8579L489.2146,704.17615L488.60638,703.826C487.99805,703.49414,484.883,701.59564,483.90613,700.969C483.62964,700.78467,483.27948,700.5819,483.13202,700.5082C482.98456,700.43445,482.43158,700.10266,481.89703,699.77094C481.3625,699.4391,480.88336,699.16266,480.82806,699.16266C480.7727,699.16266,480.09076,698.75714,479.29816,698.2779C478.52405,697.7803,477.54712,697.22723,477.1416,697.0061C476.73615,696.8033,475.61176,696.19507,474.65326,695.6605C473.69476,695.126,472.4414,694.44403,471.8885,694.1307C470.15588,693.1907,461.4007,688.7854,459.4469,687.8822C458.4331,687.42145,457.14288,686.8316,456.5899,686.57355C454.85724,685.78094,451.22614,684.19586,449.67792,683.5876C448.86688,683.2558,447.57666,682.7397,446.82092,682.42633C444.0193,681.302,438.91357,679.4035,436.22253,678.50037C430.08466,676.4544,427.61475,675.69867,421.93768,674.1504C416.68457,672.73114,408.8141,670.99854,403.59778,670.1322C402.58398,669.96625,401.12793,669.70825,400.3722,669.5793C399.61652,669.43176,398.65802,669.2843,398.2525,669.229C397.84705,669.1737,396.55676,669.0078,395.3955,668.8604C385.14734,667.5333,378.53027,667.1094,367.61847,667.0909C361.46216,667.0909,361.29633,667.0725,361.29633,666.7222C361.29633,666.53796,361.4806,666.2615,361.7202,666.1509C362.9552,665.50574,366.32825,662.16956,367.6922,660.21576C368.706,658.7965,369.68286,656.73206,369.8672,655.6999C369.94092,655.276,370.14368,654.74146,370.328,654.52026C370.64136,654.1332,370.82562,654.0963,375.32306,653.94885C380.6499,653.7646,394.6767,653.912,397.38623,654.1885C398.36316,654.28064,400.3722,654.44653,401.84674,654.5571C406.6391,654.9258,411.96594,655.5709,417.88263,656.5109C421.93768,657.156,422.6012,657.2666,427.37512,658.26196C428.90497,658.5753,430.6745,658.9439,431.338,659.073C432.59137,659.33105,439.74304,661.15576,441.47565,661.6535C442.02856,661.81934,442.9134,662.05896,443.411,662.2064C444.25885,662.4276,445.32794,662.74097,447.83472,663.5151C448.35077,663.68097,449.12488,663.9206,449.58575,664.0496C450.71008,664.3998,455.8526,666.13245,456.31335,666.3352C456.51617,666.42737,457.14288,666.64856,457.6958,666.8513C461.3454,668.1784,467.42792,670.5746,469.67664,671.55145C470.1374,671.7542,470.67194,671.99384,470.8747,672.0675C472.7179,672.8601,473.1787,673.06287,473.82385,673.3578C478.8189,675.6618,480.73584,676.58344,484.5144,678.4819C486.94745,679.6984,488.9934,680.6384,489.0855,680.5647C489.1593,680.49097,489.1961,678.4082,489.17773,675.9383C489.12244,672.1966,489.0855,671.44086,488.84595,671.3119C488.5879,671.16437,485.93365,669.8926,482.48688,668.28894C476.82825,665.6532,467.66754,661.91156,462.02734,659.9577C459.40997,659.0545,453.93573,657.2482,452.627,656.8796C452.01874,656.69525,450.98657,656.3819,450.32294,656.1976C449.65942,655.9948,448.71942,655.7184,448.2033,655.5709C446.87622,655.18384,443.20825,654.1885,442.02856,653.912C441.47565,653.78296,440.4803,653.54333,439.81677,653.39594C439.1532,653.2485,437.88135,652.9351,436.95978,652.73236C436.05658,652.51117,434.23187,652.1426,432.90472,651.8845C431.59607,651.6264,430.01086,651.2947,429.40265,651.1656C428.79437,651.0182,427.9281,650.8523,427.4673,650.77856C427.00647,650.70483,426.58258,650.6127,426.50885,650.5574C426.2876,650.4468,426.89594,649.8754,428.05707,649.15656C431.6698,646.871,435.31934,642.94495,436.77545,639.7931C437.27313,638.6687,437.78918,636.84393,437.78918,636.1251C437.78918,635.2219,438.17633,634.94543,439.28223,635.0745C441.36505,635.3141,446.45227,636.162,447.83472,636.4938C448.24017,636.5859,449.6963,636.8808,451.06024,637.13885C452.4242,637.3969,453.80664,637.6734,454.10162,637.76556C454.41492,637.8577,455.48395,638.1158,456.49774,638.337C458.30414,638.74243,460.47906,639.2954,463.22546,640.03265C463.98108,640.2355,464.8106,640.4382,465.06866,640.49347C465.4926,640.5857,467.99933,641.3045,471.05908,642.2445C474.2478,643.203,481.3994,645.63605,484.7356,646.8894C486.7447,647.64514,488.5511,648.2902,488.75378,648.3271C489.12244,648.3824,489.12244,648.2718,489.12244,643.79285L489.12244,639.20325L487.83215,638.76086C487.13177,638.52124,486.3023,638.2448,485.98895,638.1526C485.6941,638.0605,483.86932,637.4522,481.93396,636.8071C480.01697,636.162,477.8604,635.46155,477.1416,635.2588C473.89758,634.2819,473.1787,634.07916,471.8332,633.72894C471.0406,633.5446,470.32178,633.3234,470.22955,633.2681C470.1374,633.2128,469.7135,633.10223,469.27118,633.0101C468.82874,632.91797,467.64917,632.62305,466.63538,632.34656C465.62158,632.07007,464.42352,631.77515,463.9627,631.683C462.8568,631.4802,460.99512,631.03784,460.6081,630.872C460.42377,630.7982,460.2763,630.6323,460.2763,630.48486C460.2763,630.3559,460.7187,629.3974,461.25317,628.3468C463.88898,623.2227,465.64,618.06177,466.26672,613.63806C466.46948,612.2003,466.4879,612.16345,467.33582,612.16345C467.75964,612.16345,469.0315,612.3477,470.1374,612.5506C471.26178,612.7533,472.8285,613.0482,473.63953,613.1956C474.4505,613.3247,475.44586,613.5274,475.85132,613.61957C476.2569,613.71173,477.4181,613.9698,478.43182,614.191C481.21503,614.79926,483.1504,615.24164,485.93365,615.942C487.3161,616.29224,488.62476,616.58716,488.82745,616.58716C489.2146,616.58716,489.2146,616.5134,489.2146,612.18195C489.2146,608.8825,489.1593,607.73975,488.9934,607.6108C488.6985,607.3711,486.13647,606.7629,483.50067,606.2836C482.9477,606.17303,481.49158,605.8782,480.27502,605.6201C478.06317,605.14087,477.45496,605.04877,473.97125,604.5326C472.9391,604.38513,471.6488,604.1824,471.11438,604.0718C470.57983,603.9612,469.47388,603.7953,468.68134,603.7032C467.83344,603.611,467.11462,603.42664,466.96716,603.26074C466.81964,603.11334,466.5432,602.2839,466.35883,601.45447C466.19293,600.60657,465.82428,599.3348,465.52942,598.6159C465.05017,597.43634,465.03174,597.2888,465.25293,596.4962C466.15613,593.1969,466.3957,591.28,466.43262,587.0959L466.451,583.5017L468.10992,583.4464C469.0315,583.40955,471.35394,583.52014,473.27094,583.6675C475.20624,583.8334,477.3628,583.9993,478.06317,584.0546C479.31653,584.1652,481.54688,584.4048,485.98895,584.97626C487.20544,585.1237,488.422,585.2527,488.71686,585.2527L489.2146,585.2527L489.2146,580.82904C489.2146,575.6865,489.4173,576.092,486.87378,575.9446C485.98895,575.8708,484.0905,575.7049,482.67126,575.55743C480.23822,575.3178,476.21997,575.1151,467.85187,574.8202C464.34973,574.6911,464.25763,574.6911,463.8521,574.2488C463.61243,573.9907,463.33606,573.49304,463.20697,573.1244C463.09637,572.73737,462.76465,572.0554,462.46967,571.5577C462.1748,571.0784,461.93512,570.6177,461.93512,570.5255C461.93512,570.4333,461.82452,570.23065,461.71405,570.10156C461.58496,569.97253,461.3269,569.567,461.161,569.21686C460.70026,568.2952,460.40533,567.8529,460.14722,567.687C460.01825,567.6132,459.90765,567.4474,459.90765,567.3368C459.90765,567.2262,459.4837,566.54425,458.94916,565.8253C457.0691,563.24493,454.56238,560.42474,451.687,557.6047C444.351,550.4346,441.2729,547.209,440.95953,546.36115C440.90424,546.2137,440.7199,545.9188,440.55408,545.716C440.07483,545.1631,438.96887,542.93274,438.54498,541.6425C438.23163,540.6841,438.15784,540.0021,438.15784,537.38477C438.1394,535.35724,438.04724,534.1038,437.91827,533.8089C437.60492,533.2007,436.83075,533.18225,435.57733,533.7536 Z M439.57715,559.41095C440.07483,559.70593,441.29126,560.42474,442.30505,561.0146C447.46606,564.0375,451.20776,566.80225,454.37805,569.95416C456.682,572.2766,458.17505,574.2673,457.917,574.7096C457.8249,574.8386,456.36865,574.9861,453.54858,575.1151C451.20776,575.2073,448.47986,575.3731,447.4845,575.46533C445.99146,575.61273,445.586,575.5943,445.27264,575.3731C444.8487,575.0782,442.76587,572.5162,442.76587,572.2766C442.76587,572.2028,442.52625,571.81573,442.23138,571.4471C441.7337,570.82043,439.79834,567.1709,439.33752,565.97284C438.4159,563.63196,438.15784,562.526,438.15784,560.8487C438.15784,559.2267,438.1947,559.0608,438.65558,558.9133C438.69238,558.8949,439.0979,559.1345,439.57715,559.41095 Z M461.89832,583.46484C462.30377,583.94403,462.50653,585.4186,462.61713,588.49677C462.76465,592.8098,462.54346,593.43646,461.456,591.8699C461.161,591.4458,460.68176,590.8376,460.36847,590.5243C458.50684,588.5336,457.14288,587.1512,455.50244,585.5476C454.47028,584.5523,453.64075,583.6675,453.64075,583.5938C453.64075,583.262,454.13843,583.22516,457.78796,583.22516C460.75555,583.22516,461.75085,583.28046,461.89832,583.46484 Z M441.18073,585.5845C442.41565,586.3955,443.92706,587.35394,444.5722,587.75946C447.0974,589.3262,449.9544,591.28,451.687,592.6071C453.67767,594.11847,456.8664,597.14136,457.56683,598.1736C457.8064,598.5238,458.30414,599.2426,458.67273,599.75867C459.04132,600.2932,459.35474,600.8093,459.35474,600.90155C459.35474,600.99365,459.4837,601.1595,459.6496,601.2886C459.79706,601.436,459.90765,601.7493,459.8708,602.0074L459.8155,602.48663L457.78796,602.43134C456.682,602.3945,455.2259,602.30237,454.56238,602.2102C453.8988,602.118,450.04657,601.9337,445.99146,601.8231C440.73834,601.67566,438.54498,601.54663,438.37903,601.3807C438.1947,601.2148,438.1394,599.4638,438.15784,592.8098C438.15784,588.2203,438.21313,584.3864,438.26843,584.3126C438.4897,583.96246,439.06104,584.20215,441.18073,585.5845 Z M433.9369,584.69977C434.26868,584.8841,434.28717,585.179,434.28717,592.95734C434.28717,599.4454,434.23187,601.1042,434.0475,601.3807C433.80792,601.67566,433.43927,601.7125,430.4901,601.7862C428.68384,601.8231,426.1217,601.9337,424.79468,602.0258C420.35254,602.35767,415.78137,602.7447,414.19623,602.9475C413.32996,603.0396,411.5052,603.26074,410.14124,603.40826C407.21045,603.74005,402.34442,604.4404,398.06824,605.14087C397.07288,605.3067,391.74603,606.3205,388.76007,606.91034C386.73248,607.3158,382.2719,608.2928,381.20288,608.5693C377.42432,609.54614,371.17584,611.05756,370.8994,611.05756C370.71503,611.05756,370.53076,610.9101,370.47546,610.7258C370.328,610.09906,370.4939,599.20575,370.64136,599.0582C370.84412,598.8556,373.40613,597.97076,377.79297,596.58844C379.61774,596.017,381.53467,595.4272,382.03235,595.2613C382.5484,595.0954,383.21198,594.9111,383.5069,594.83734C383.82025,594.74524,384.9262,594.4319,385.99518,594.11847C387.06427,593.8052,388.42822,593.4181,389.0365,593.2522C389.64478,593.0863,390.51105,592.82825,390.97186,592.6993C392.0962,592.349,393.8841,591.8699,394.65826,591.704C395.00848,591.6302,396.2619,591.31683,397.4231,591.022C398.58435,590.70856,400.16943,590.32153,400.92517,590.15564C401.6809,589.97125,402.80524,589.7133,403.4135,589.5842C406.67603,588.8285,407.83716,588.57043,409.77258,588.2018C410.93378,587.9806,413.09027,587.57513,414.56482,587.2803C416.03943,587.0037,417.60614,586.70886,418.06696,586.65356C418.52777,586.5798,419.55994,586.4139,420.37097,586.2665C423.54126,585.71356,429.716,584.86566,432.3518,584.6445C432.75726,584.6076,433.1997,584.5707,433.32867,584.5523C433.4577,584.5339,433.73413,584.6076,433.9369,584.69977 Z M366.78906,606.1915C366.82587,611.27875,366.8075,611.77637,366.5125,612.12665C366.3098,612.3477,365.49884,612.698,364.42975,612.9929C363.47125,613.2509,362.47595,613.5459,362.2179,613.63806C361.95984,613.73016,360.63275,614.1541,359.26874,614.57806C356.08002,615.57336,351.6563,617.048,348.0252,618.31976C344.17297,619.6653,343.9702,619.7391,343.2882,620.03394C342.97485,620.16296,342.6615,620.27356,342.6062,620.27356C342.5509,620.27356,341.77673,620.55,340.8736,620.90027C339.9889,621.2504,338.0351,622.00616,336.52362,622.5776C333.9063,623.57294,333.18744,623.8678,331.89722,624.4208C331.6023,624.56824,330.8097,624.8816,330.14618,625.13965C327.38135,626.2087,318.77356,629.8951,315.8614,631.24066C315.36365,631.4802,314.5711,631.83044,314.1103,632.0332C313.64954,632.23596,312.45148,632.8074,311.43768,633.2681C310.4239,633.7474,309.0968,634.374,308.48853,634.6506C307.8803,634.927,306.40576,635.62744,305.22607,636.1988C304.02795,636.7702,302.9405,637.2311,302.7931,637.2311C302.64557,637.2311,302.31384,637.0098,302.0558,636.7149C300.58124,635.1113,299.73334,634.0423,299.12506,633.04694C298.2588,631.6277,298.3141,631.49866,300.36005,630.44806C301.17102,630.0241,302.5534,629.2868,303.41974,628.82605C307.5854,626.5404,324.15576,618.19073,328.57947,616.12634C332.0631,614.50433,334.77264,613.2694,334.82794,613.2694C334.8648,613.2694,335.54675,612.9745,336.3578,612.60583C337.15033,612.2371,338.21942,611.7395,338.71704,611.5183C339.23315,611.27875,340.9289,610.54144,342.49567,609.8595C344.06238,609.1959,345.5185,608.5693,345.7212,608.47705C345.92395,608.3849,346.9193,607.97943,347.93304,607.5555C348.94684,607.13153,350.43982,606.5233,351.25085,606.1915C352.06183,605.8597,353.55487,605.26984,354.5686,604.8829C355.5824,604.4957,356.50397,604.10864,356.59613,604.035C356.70673,603.9612,357.07538,603.8138,357.42554,603.7216C357.77582,603.611,358.937,603.1871,360.00604,602.7631C361.07513,602.35767,362.47595,601.8231,363.13953,601.58356C363.80304,601.3439,364.6325,601.0121,364.98273,600.8646C365.33295,600.6987,365.88586,600.58813,366.1808,600.60657L366.73376,600.64343L366.78906,606.1915 Z M433.88165,609.5092L434.28717,609.7857L434.28717,617.30597C434.28717,623.55444,434.2503,624.8816,434.0291,625.0475C433.82635,625.2133,433.513,625.158,432.59137,624.78937C430.08466,623.7572,428.2046,623.407,425.21863,623.407C421.8271,623.407,419.48627,623.8678,416.03943,625.2133C414.87817,625.6557,414.65704,625.67413,407.37634,625.8953C403.26605,626.02435,398.84235,626.2271,397.51526,626.3377C396.2066,626.4483,394.08685,626.6326,392.81506,626.7248C389.9765,626.92755,385.71875,627.3883,384.2442,627.64636C383.63586,627.7385,382.401,627.9044,381.4793,628.015C379.23065,628.25464,371.67352,629.41583,371.23114,629.5817C370.4939,629.8398,370.45697,629.5817,370.45697,623.4254C370.45697,619.7759,370.51227,617.43506,370.62292,617.32446C370.8072,617.1401,376.87134,615.64716,379.26752,615.2048C379.9864,615.0573,381.35034,614.7808,382.30878,614.55963C384.0598,614.1726,384.85242,614.00665,389.0365,613.28784C390.253,613.06665,391.37738,612.8639,391.52484,612.8086C391.9488,612.67957,396.04065,612.05286,400.64868,611.4262C410.7126,610.0622,420.59216,609.32495,429.95557,609.2512C432.86786,609.21436,433.53143,609.26965,433.88165,609.5092 Z M448.84845,609.8595C456.25806,610.4677,461.2901,611.076,461.99042,611.44464C462.2301,611.5921,462.30377,611.8686,462.30377,612.84546C462.30377,614.96515,461.60345,619.4072,460.97675,621.2873C460.88452,621.5823,460.68176,622.3011,460.53436,622.85406C460.09192,624.4761,459.98145,624.8447,459.09662,627.3515C458.6358,628.66016,458.13818,629.8582,457.99066,630.0057C457.7511,630.2453,457.54834,630.2637,456.7373,630.09784C455.76044,629.8951,455.41028,629.82135,451.52112,629.1025C449.14337,628.66016,445.2542,628.0703,440.2223,627.3883C439.1532,627.24084,438.43433,627.0566,438.32373,626.8906C438.23163,626.7432,438.15784,622.81714,438.15784,618.11707C438.15784,611.49994,438.21313,609.58295,438.39752,609.5092C438.74768,609.3434,445.23572,609.5645,448.84845,609.8595 Z M176.69954,612.2371C178.17412,612.8639,179.40907,614.873,179.92516,617.5087C180.5887,620.90027,180.5887,623.9231,179.94362,627.0012C179.53807,628.88135,179.40907,629.32367,178.48744,631.5908C177.91606,633.04694,177.52898,633.8027,176.73643,635.1113C176.6074,635.3141,176.23875,635.92236,175.88853,636.4938C173.93474,639.7193,167.96278,646.447,167.07802,646.447C166.5988,646.447,166.61723,646.5576,166.15645,643.1293C165.6772,639.53503,165.6772,629.37897,166.15645,626.4483C167.09648,620.88184,168.58946,617.0111,170.72758,614.68866C171.96251,613.34314,172.64452,612.8639,174.06377,612.3477C175.24342,611.9239,175.87013,611.88696,176.69954,612.2371 Z M366.78906,624.1074C366.8075,627.5174,366.7522,629.82135,366.6416,630.0241C366.4757,630.3559,365.35138,630.6876,361.75708,631.4249C359.84015,631.812,354.69763,632.99164,353.64697,633.2681C351.47205,633.858,348.22797,634.6874,347.28796,634.90857C346.735,635.056,345.70282,635.3325,344.98395,635.5353C344.2835,635.73804,342.62463,636.1988,341.29755,636.56744C339.9889,636.9545,338.33002,637.4522,337.61115,637.6734C336.9107,637.913,335.82324,638.2448,335.21497,638.42914C334.109,638.74243,332.83722,639.1664,328.0265,640.8068C326.60724,641.2861,325.1142,641.76526,324.70868,641.8575C324.32166,641.9681,323.89777,642.11554,323.7871,642.1892C323.695,642.2814,322.81024,642.61316,321.8518,642.94495C319.67676,643.68225,317.2622,644.56696,316.78296,644.7697C316.5802,644.8619,316.17468,645.0278,315.8614,645.11993C315.56647,645.23047,314.86603,645.4886,314.3499,645.69135C311.97223,646.6314,311.49298,646.7788,311.25336,646.7051C311.10583,646.6498,310.68195,646.20746,310.29492,645.74664C309.90778,645.2674,308.78345,643.9771,307.78815,642.8712C306.01862,640.93585,305.9818,640.8621,306.31354,640.54877C306.66376,640.21704,310.75568,638.2817,313.87073,636.97296C314.5158,636.7149,315.47424,636.29095,315.99036,636.0514C317.4834,635.3694,322.82867,633.12067,325.35382,632.1438C326.0174,631.88574,326.80994,631.55396,327.10492,631.4249C327.41827,631.29596,328.45044,630.872,329.40894,630.50336C330.36737,630.1347,331.36273,629.7476,331.6208,629.637C332.09998,629.43427,335.76794,628.0703,338.80927,626.96436C345.42633,624.5498,355.04785,621.4532,361.9414,619.5178C363.0658,619.2045,364.30072,618.8359,364.70624,618.70685C365.11176,618.5594,365.7384,618.4672,366.08862,618.48566L366.73376,618.5225L366.78906,624.1074 Z M404.79584,633.1944C404.79584,633.3972,404.59314,633.83954,404.35352,634.15283C402.87897,636.162,401.66248,639.7562,401.66248,642.17084C401.66248,643.074,402.16016,646.26276,402.3813,646.871C402.4735,647.1106,402.49188,647.387,402.43658,647.47925C402.3629,647.5714,397.33093,647.64514,390.23462,647.64514C380.24445,647.64514,377.55334,647.7004,374.62268,647.97687C372.68732,648.1428,370.9547,648.2349,370.8072,648.1796C370.64136,648.1243,370.51227,647.88477,370.4939,647.6636C370.47546,647.1659,370.47546,636.29095,370.4939,636.0145C370.53076,635.5906,370.6045,635.57214,377.51648,634.6874C382.82495,634.00543,385.03674,633.7658,387.1933,633.6368C388.11487,633.5815,389.7185,633.434,390.78754,633.3234C393.239,633.08386,397.75488,632.88104,401.71777,632.8442C404.72217,632.8074,404.79584,632.82574,404.79584,633.1944 Z M292.87665,638.1526C292.9135,639.8299,292.87665,641.4519,292.82135,641.76526C292.72913,642.2998,292.37897,642.50256,285.854,645.7835C262.90613,657.3772,253.52425,661.9852,253.19246,661.8562C252.91594,661.76404,252.8607,661.4691,252.54732,658.7228C252.38145,657.1007,252.38145,656.86115,252.65791,656.5662C252.84227,656.36346,254.88823,655.2023,257.22906,653.9673C259.56995,652.73236,261.81866,651.55273,262.22412,651.3315C262.92462,650.94446,263.58813,650.5758,266.64783,648.93536C267.3667,648.5483,268.4173,647.9585,269.00714,647.6267C269.597,647.2765,270.1131,647.0,270.1499,647.0C270.2052,647.0,271.56915,646.24426,273.19116,645.34106C274.81323,644.41956,276.1772,643.68225,276.23248,643.68225C276.2694,643.68225,276.71173,643.4426,277.19098,643.16614C278.16785,642.5947,279.78992,641.6916,281.7621,640.641C282.48096,640.25385,283.31036,639.8115,283.6053,639.6272C284.1767,639.2954,284.32416,639.20325,288.029,637.19415C289.24548,636.5122,290.6095,635.7565,291.0703,635.4984C291.53107,635.24036,292.10248,635.0376,292.36047,635.056L292.82135,635.1113L292.87665,638.1526 Z M248.38173,635.79333C248.43703,636.03296,248.4923,636.5859,248.4923,637.0467C248.4923,637.5075,248.62132,639.03735,248.76875,640.4566C249.02684,642.9265,249.3586,646.46545,249.80101,651.4053C250.00374,653.6724,250.00374,653.6724,249.57979,654.0963C249.04524,654.6124,238.29942,660.142,232.64076,662.8147C231.5717,663.3123,229.8944,664.1049,228.91747,664.58417C227.92213,665.0449,227.0743,665.43207,227.0374,665.43207C227.00056,665.43207,226.0974,665.8375,225.02834,666.35364C223.95927,666.8513,222.87178,667.3121,222.61375,667.3858C222.3557,667.4411,222.07921,667.5701,222.02391,667.6623C221.89488,667.9019,221.2682,667.86505,221.10231,667.6254C220.95485,667.36743,220.71523,665.3768,220.4756,662.2064C220.38344,660.87933,220.21758,659.0177,220.10698,658.0592C219.29597,650.5021,218.7983,644.0509,219.00105,643.68225C219.11165,643.4795,219.86736,643.1846,221.06544,642.8712C222.11607,642.61316,223.38786,642.263,223.88554,642.11554C227.22173,641.12024,229.19395,640.5672,230.24458,640.27234C230.90816,640.10645,231.90349,639.8115,232.45644,639.6272C233.00941,639.4613,233.93102,639.1664,234.48393,639.019C235.03694,638.8531,236.45619,638.42914,237.61742,638.0789C238.77861,637.74713,239.93983,637.3969,240.19789,637.3416C241.54344,636.9914,243.42348,636.4753,244.80592,636.0698C247.68129,635.2219,248.21584,635.1851,248.38173,635.79333 Z M366.6416,636.6596C366.93646,637.2126,366.88116,643.5348,366.5863,643.9403C366.34668,644.2536,366.29138,644.2536,365.42505,643.8113C363.45282,642.83435,360.0982,642.0234,357.97858,642.0234C356.6883,642.0234,353.70227,642.521,352.26465,642.9634C347.3432,644.51166,342.0901,648.03217,339.36218,651.60803C338.0904,653.28534,338.16412,653.2116,337.11346,653.45123C336.67108,653.54333,335.78638,653.7461,335.1228,653.89355C333.37177,654.2622,329.26147,655.31287,325.9068,656.216C325.24323,656.3819,324.1742,656.6768,323.51062,656.86115C322.46002,657.13763,321.51996,657.4141,317.2622,658.6675C316.04565,659.03613,315.8614,658.92554,315.6955,657.69055C315.47424,655.9948,314.4052,652.2532,314.09186,652.05035C313.9997,651.99506,313.92603,651.6817,313.92603,651.3315C313.92603,650.66797,313.63104,650.8154,318.16534,649.1381C319.28973,648.7142,321.649,647.9216,325.44598,646.6867C327.47357,646.0231,329.29828,645.4333,329.50104,645.34106C330.07245,645.11993,333.62982,644.0324,334.66205,643.7744C335.1781,643.6454,336.9107,643.1477,338.5327,642.7053C343.56464,641.26764,346.27423,640.54877,346.5323,640.54877C346.6797,640.54877,347.21423,640.41974,347.73035,640.27234C348.74414,639.9774,353.66547,638.7977,354.5686,638.63184C354.88196,638.57654,355.91412,638.35535,356.87262,638.1526C358.937,637.69183,361.66498,637.1573,363.96893,636.7702C364.87213,636.6044,365.6463,636.4385,365.7016,636.4016C365.9043,636.1804,366.45728,636.3463,366.6416,636.6596 Z M301.1526,644.53015C303.6225,645.8388,306.7375,648.2165,306.47943,648.622C306.35046,648.82477,305.37354,649.304,303.32758,650.1334C302.31384,650.5574,301.24475,651.0182,300.9314,651.1656C300.63654,651.2947,299.47528,651.79236,298.3509,652.2532C296.5077,652.9904,296.30493,653.0457,296.10223,652.7692C295.84418,652.419,295.752,645.7835,296.01007,645.3964C296.0838,645.28577,296.83948,644.84344,297.7058,644.4379C299.41998,643.60846,299.40155,643.60846,301.1526,644.53015 Z M292.80292,647.2949C293.0241,647.88477,292.93195,654.0963,292.69232,654.4281C292.5633,654.594,291.6601,655.07324,290.70166,655.4972C289.74316,655.92114,288.87683,656.3266,288.78467,656.41876C288.67413,656.5109,288.4898,656.58466,288.36078,656.58466C288.23175,656.58466,287.10736,657.0455,285.87244,657.6168C284.61908,658.1883,283.4394,658.70435,283.2367,658.7965C283.03394,658.8886,282.2229,659.25726,281.43036,659.6075C280.61932,659.97614,279.88202,660.27106,279.753,660.27106C279.64246,660.27106,279.38434,660.38165,279.18158,660.5107C278.97888,660.65814,277.02502,661.5244,274.8501,662.4645C272.6751,663.4045,270.7213,664.2524,270.537,664.363C270.35266,664.4551,269.56012,664.8237,268.78595,665.1556C268.01184,665.48737,267.01648,665.9297,266.55573,666.13245C266.0949,666.3352,263.86462,667.3121,261.57904,668.28894C259.29346,669.2659,257.26593,670.1322,257.06317,670.22437C255.88356,670.75885,254.37212,671.33026,254.11406,671.33026C253.76384,671.33026,253.69011,670.98004,253.46895,668.3996C253.35835,667.0725,253.35835,666.18774,253.46895,665.985C253.56111,665.8007,254.16936,665.39514,254.79604,665.1002C256.04944,664.492,258.51935,663.3492,260.5653,662.39075C261.28412,662.05896,263.16418,661.15576,264.76782,660.38165C266.3529,659.6075,268.9334,658.37256,270.4817,657.6168C272.0116,656.8796,274.94226,655.46027,276.96973,654.46497C281.30133,652.3453,290.70166,647.7742,291.62323,647.3317C292.4527,646.9447,292.65546,646.9263,292.80292,647.2949 Z M309.92627,652.84296C310.57135,653.5618,311.97223,657.4325,312.17493,659.0177L312.30396,660.0683L311.60358,660.3632C311.19806,660.5291,309.68658,661.0821,308.2121,661.5613C306.7375,662.05896,304.21228,662.9253,302.59027,663.49664C296.30493,665.69006,296.36023,665.67163,296.0838,665.303C295.89948,665.0449,295.8626,664.1602,295.89948,661.4138C295.95477,657.2666,295.60455,657.85645,298.90393,656.5478C300.12042,656.0501,301.28162,655.5709,301.48438,655.4787C302.86676,654.85205,308.9309,652.54803,309.24426,652.5296C309.44702,652.5296,309.76038,652.67706,309.92627,652.84296 Z M250.3355,658.1883C250.3355,658.37256,250.46452,659.4048,250.61195,660.4738C250.74101,661.5613,250.81471,662.6304,250.75945,662.85156C250.66725,663.23865,249.76408,663.71783,246.00398,665.43207C245.3957,665.7085,244.43727,666.13245,243.88426,666.40894C240.40068,668.0125,237.9676,669.1184,237.83858,669.1184C237.76488,669.1184,237.46996,669.24744,237.1566,669.4133C236.60365,669.70825,233.94942,670.81415,230.15245,672.3625C229.04652,672.8233,227.959,673.2656,227.75627,673.3578C226.65034,673.8739,222.46626,675.3853,222.15291,675.3853C221.72899,675.3853,221.56313,674.648,221.52623,672.54675L221.48936,671.2934L222.1345,670.94324C222.4847,670.75885,224.36476,669.92944,226.2817,669.10004C228.21706,668.27057,230.31834,667.34894,230.98186,667.0356C231.6454,666.7407,232.76979,666.2246,233.4702,665.8928C236.03227,664.7316,240.8983,662.3539,245.24825,660.142C247.69975,658.9071,249.83784,657.8933,250.02217,657.8933C250.20647,657.8749,250.3355,658.0039,250.3355,658.1883 Z M336.06287,661.0268C336.21027,663.49664,336.8001,665.174,338.10876,666.7407C338.6065,667.3305,339.06726,667.8282,339.141,667.8282C339.21472,667.8282,339.3806,667.9941,339.4912,668.19684C339.823,668.6945,339.4359,668.8788,337.4084,669.1184C336.50525,669.21063,335.0675,669.43176,334.20123,669.5793C333.3349,669.7267,331.80505,669.98474,330.79132,670.15063C328.67163,670.4824,325.64874,671.03534,323.7871,671.4225C323.08667,671.5699,321.46466,671.9017,320.19287,672.1597C318.92108,672.4178,317.05945,672.8233,316.0641,673.0813C315.0688,673.3209,314.1656,673.4868,314.0735,673.4315C313.83386,673.28406,313.96283,672.5837,314.55267,670.5008C314.81073,669.59766,315.1978,667.80975,315.41895,666.53796C315.65863,665.2662,315.9167,664.1234,316.02728,664.01276C316.13782,663.8837,317.02258,663.5704,317.98102,663.29395C318.9395,663.0358,320.156,662.7041,320.6537,662.55664C323.04987,661.91156,328.41357,660.5659,331.34424,659.9024C332.26587,659.6997,333.5008,659.4048,334.109,659.25726C335.98914,658.8333,335.93384,658.7781,336.06287,661.0268 Z M292.80292,659.5706C293.0241,660.4185,292.93195,666.4458,292.69232,666.75916C292.5633,666.925,291.8813,667.2752,291.1624,667.5517C290.46204,667.80975,289.57727,668.16,289.22705,668.28894C288.87683,668.43646,287.95526,668.7682,287.19952,669.04474C286.44385,669.3212,285.52222,669.65295,285.172,669.782C276.87762,672.9339,276.6933,673.00757,271.7166,674.8324C270.55542,675.25635,269.22833,675.75397,268.76752,675.9383C268.3067,676.1226,267.60632,676.3991,267.20074,676.5465C266.7953,676.694,266.13177,676.952,265.72626,677.0995C265.32074,677.2654,264.41754,677.59717,263.69873,677.87366C262.9983,678.1317,262.2426,678.4266,262.03986,678.50037C261.8371,678.57404,261.13666,678.8321,260.47314,679.0533C259.80957,679.2929,258.74048,679.68,258.07697,679.9196C255.99416,680.7122,254.77763,681.09924,254.42741,681.09924C254.09566,681.09924,254.0772,680.9518,254.15096,678.20544C254.20625,675.7171,254.26155,675.2747,254.53801,675.1088C254.70387,675.01666,255.8098,674.5374,256.971,674.07666C261.46844,672.2703,267.55103,669.7267,273.2834,667.2752C274.9054,666.59326,277.65173,665.43207,279.36597,664.7132C281.09857,663.9759,282.75745,663.2755,283.05237,663.128C283.58685,662.88837,285.92773,661.91156,289.87225,660.27106C290.88593,659.8656,291.8813,659.44165,292.08405,659.3494C292.63702,659.10986,292.67383,659.1283,292.80292,659.5706 Z M312.45148,665.8375C312.45148,666.55634,311.97223,669.2659,311.622,670.5008C310.77417,673.52374,310.55292,674.1135,310.1474,674.38995C309.90778,674.5559,308.59912,674.96136,307.2536,675.3116C305.90802,675.6434,304.2307,676.1042,303.5119,676.30695C302.81146,676.52814,302.01886,676.74927,301.7608,676.80457C301.5028,676.85986,300.59967,677.1179,299.73334,677.3576C296.23126,678.3898,296.34186,678.3529,296.10223,678.0211C295.93634,677.7999,295.8626,676.73083,295.8626,674.261C295.8626,671.2381,295.89948,670.77734,296.19434,670.4455C296.5077,670.0769,298.60895,669.3212,306.7375,666.7222C309.02307,666.0034,310.97687,665.3768,311.06903,665.33984C311.17963,665.303,311.5298,665.2662,311.86163,665.2662C312.41455,665.2477,312.45148,665.28455,312.45148,665.8375 Z M165.08739,666.48267C165.19795,667.5517,165.76936,671.79114,166.10115,674.13196C166.41447,676.2332,166.4698,676.14105,163.70497,677.2285C159.9817,678.70306,156.55336,681.6522,154.48897,685.1543C153.95445,686.0759,153.51207,686.8132,153.49364,686.8316C153.4199,686.86847,148.79347,687.3846,147.54012,687.47675C145.67845,687.6242,145.60472,687.53204,146.30516,685.79944C147.39262,683.0715,149.7335,679.55096,152.73793,676.1226C155.57646,672.8786,163.81557,665.43207,164.57127,665.43207C164.9215,665.43207,164.97679,665.56104,165.08739,666.48267 Z M251.27553,667.7176C251.36772,668.0125,251.47832,669.13684,251.55199,670.20593C251.71788,672.8601,251.69948,672.8786,248.60289,672.897L246.35417,672.897L244.7506,673.6896C243.62624,674.24255,242.81526,674.8139,242.00423,675.625C241.35912,676.25165,240.60341,676.87836,240.29005,677.02576C238.79704,677.6893,228.43825,681.44946,226.9268,681.855C226.57661,681.9656,226.1158,682.113,225.91307,682.20514C224.9546,682.61066,222.89021,683.16364,222.65059,683.0715C222.37413,682.9793,222.1345,681.39417,222.1345,679.68C222.1345,678.7768,222.30037,678.64777,224.56752,677.8552C225.3048,677.59717,226.208,677.2838,226.55815,677.13635C226.9084,677.0073,228.40138,676.41754,229.87593,675.8461C231.35051,675.2747,233.67296,674.33466,235.03694,673.78174C236.4009,673.2103,238.20723,672.49146,239.0367,672.1413C239.86613,671.8095,240.69554,671.44086,240.87987,671.3487C241.0642,671.2381,241.70934,670.9617,242.31755,670.70355C242.92583,670.464,243.95802,670.0032,244.62154,669.70825C248.41856,667.9573,250.46452,667.0909,250.77788,667.1278C250.99907,667.1647,251.2018,667.3858,251.27553,667.7176 Z M292.80292,671.9201C292.85822,672.1597,292.9135,673.8554,292.9135,675.68024C292.9135,678.1317,292.85822,679.0717,292.69232,679.2192C292.3974,679.44037,291.40204,679.82745,289.68787,680.3251C288.30548,680.7306,285.3011,681.6338,283.3288,682.24207C282.66528,682.4448,281.66998,682.7582,281.11694,682.94244C280.56403,683.1268,279.23688,683.5323,278.16785,683.8641C277.09882,684.1774,275.77167,684.5829,275.21875,684.7672C274.66577,684.95154,273.7995,685.228,273.2834,685.3939C272.7857,685.5598,271.45856,685.96533,270.3343,686.3155C269.22833,686.6657,267.80908,687.1081,267.20074,687.274C266.59253,687.45825,265.22858,687.8822,264.1595,688.21405C263.09045,688.5458,261.48688,689.04346,260.5653,689.3015C259.6621,689.578,258.7036,689.8545,258.44556,689.94666C258.18756,690.03876,257.3581,690.2784,256.60236,690.4996C255.84666,690.72076,254.31685,691.16315,253.19246,691.51337C252.08653,691.84515,250.99907,692.1585,250.79631,692.2138C250.59355,692.2691,249.69038,692.5271,248.76875,692.8036C246.7228,693.41187,245.28514,693.8173,244.43727,694.0017C244.08705,694.0938,242.99953,694.37036,242.04109,694.6468C240.32692,695.126,239.11037,695.43933,237.06444,695.9371C236.51149,696.06604,235.35027,696.36096,234.48393,696.58215C233.61766,696.7849,232.38268,697.07983,231.71916,697.22723C231.05559,697.37476,229.94969,697.63275,229.23079,697.7803C226.65034,698.37006,224.60439,698.81244,223.33257,699.05206C222.63216,699.1995,220.97328,699.5313,219.6646,699.7893C218.35594,700.0658,216.82607,700.3608,216.25468,700.43445C214.54051,700.71094,212.75258,701.0058,210.70665,701.37445C207.73909,701.89056,205.17705,702.2592,197.71205,703.1992C195.05785,703.531,193.34367,703.67847,192.69856,703.6048C192.56953,703.6048,192.45894,703.4204,192.45894,703.21765C192.45894,702.462,193.06718,700.4713,193.38054,700.1764C193.58327,699.9921,194.4496,699.7893,195.70299,699.6235C198.48622,699.2548,201.02983,698.86774,203.42601,698.42535C209.82191,697.2457,210.24586,697.1904,210.63292,697.5222C210.81725,697.6697,211.49922,697.7618,212.60515,697.7618C214.7801,697.7618,215.628,697.4669,217.98729,695.9186C218.6877,695.43933,219.554,695.1629,221.67369,694.6468C223.20354,694.2966,224.8993,693.8726,225.45226,693.7252C227.8484,693.0985,229.41518,692.67456,232.27211,691.8636C233.94942,691.4027,235.73735,690.9051,236.235,690.77606C237.1382,690.518,237.74641,690.3521,240.29005,689.5595C242.52031,688.87756,243.5709,688.6564,244.62154,688.6564C246.3726,688.6564,247.84718,688.14026,249.59822,686.92377C250.53828,686.2787,250.48299,686.2971,255.21999,684.6935C257.1554,684.04834,259.47778,683.2558,260.38092,682.94244C263.97522,681.6891,270.3896,679.42194,271.25586,679.0902C271.7719,678.8874,273.37555,678.2976,274.8501,677.7815C276.32465,677.2654,277.81763,676.73083,278.16785,676.58344C278.51807,676.4544,279.56873,676.06726,280.47186,675.75397C281.39343,675.4222,283.292,674.74023,284.71124,674.24255C288.06586,673.026,292.41577,671.533,292.5633,671.5146C292.63702,671.5146,292.72913,671.6989,292.80292,671.9201 Z M219.16695,672.5837C219.25911,672.7496,219.38814,673.6527,219.46187,674.5559C219.57243,675.97516,219.554,676.27,219.29597,676.47284C219.01949,676.71246,214.72481,678.26074,212.9185,678.7952C212.45769,678.9243,211.13057,679.3482,209.96935,679.7537C207.53633,680.6016,204.40288,681.5785,203.05736,681.9287C202.55968,682.0577,201.56435,682.3526,200.84554,682.5738C199.29723,683.05304,198.48622,683.27423,195.22374,684.10364C193.85979,684.45386,192.53267,684.8225,192.27461,684.9331C192.01659,685.0253,191.38988,685.1543,190.8738,685.228L189.91533,685.3386L188.9384,684.21423C187.55602,682.61066,187.42702,682.7028,192.5511,681.28357C194.08095,680.8596,195.64766,680.39886,196.05318,680.2698C196.4587,680.1224,197.78578,679.6984,199.0023,679.3298C201.08513,678.68463,204.51347,677.5603,206.55943,676.84143C208.1446,676.2885,215.88603,673.41315,217.34218,672.8233C219.00105,672.1597,218.94576,672.1781,219.16695,672.5837 Z M104.869934,679.127C106.602554,679.9749,108.04025,682.22363,108.77754,685.19116C109.293625,687.25555,109.31207,687.25555,106.39981,687.08966C103.782455,686.9422,103.50597,686.8132,102.98987,685.46765C102.76869,684.89624,102.436905,684.50916,101.71806,684.0299C100.31723,683.0715,99.469345,682.8688,98.30815,683.21893C97.79204,683.3848,97.31282,683.5876,97.25752,683.6797C97.202225,683.79034,96.90732,683.8641,96.59398,683.8641C96.11473,683.8641,96.05943,683.8088,96.05943,683.29266C96.05943,681.50476,98.69522,679.14545,101.20198,678.70306C102.41849,678.4819,103.92992,678.64777,104.869934,679.127 Z M219.81206,679.9749C219.88579,680.0671,219.97795,680.6569,220.05168,681.28357L220.16228,682.4448L219.5356,682.3342C219.18538,682.27893,218.54027,682.1499,218.07945,682.0209C215.1119,681.2467,211.13057,683.18207,208.69756,686.62885C208.1446,687.40295,208.03401,687.45825,206.22768,687.956C204.03423,688.5642,203.49971,688.69324,201.7671,689.0803C198.46776,689.83606,196.1822,690.3521,195.59239,690.4996C195.24217,690.5918,194.41273,690.72076,193.74919,690.77606C192.66167,690.88666,192.53267,690.8682,192.31151,690.518C191.97969,689.94666,191.53734,688.6195,191.53734,688.1587C191.53734,687.75323,191.59264,687.7164,192.82759,687.4952C193.58327,687.3477,200.49529,685.5598,202.9652,684.8594C206.44884,683.8641,211.48079,682.37103,211.90474,682.20514C212.36552,682.0209,213.9138,681.50476,214.66951,681.28357C214.98286,681.20984,216.05193,680.8412,217.06569,680.49097C218.98262,679.809,219.6462,679.6984,219.81206,679.9749 Z M238.9261,683.0715C238.9814,684.01154,239.12883,684.89624,239.25786,685.0437C239.38689,685.19116,239.46059,685.5414,239.42372,685.8179C239.36842,686.3708,238.90764,686.59204,236.69579,687.2371C236.14287,687.40295,235.01848,687.7348,234.20747,687.9928C233.39647,688.25085,232.10622,688.63794,231.35051,688.8407C230.59477,689.0619,229.39671,689.3937,228.67787,689.59644C227.05586,690.0756,225.67345,690.4443,224.25417,690.7945C223.64592,690.94196,222.96391,691.10785,222.74275,691.16315C221.91331,691.38434,221.74745,691.16315,222.04234,690.22314C222.17137,689.7439,222.3557,688.82227,222.42943,688.1587C222.50316,687.3846,222.66902,686.8316,222.87178,686.62885C223.0561,686.4445,223.9777,686.0575,224.91774,685.78094C225.8762,685.4861,229.26772,684.3617,232.45644,683.29266C235.64516,682.20514,238.39156,681.33887,238.53899,681.3573C238.76021,681.37573,238.83391,681.7628,238.9261,683.0715 Z M174.9485,686.79474C175.72267,686.97906,176.62584,687.274,176.9576,687.45825C177.47371,687.7164,177.52898,687.80853,177.32622,688.0113C177.04976,688.25085,175.20656,688.6195,173.40022,688.7854C172.60765,688.8592,172.2943,688.82227,172.16527,688.63794C171.98097,688.343,171.94408,686.73944,172.1284,686.57355C172.3496,686.35236,173.52925,686.4445,174.9485,686.79474 Z M167.87062,688.19556C167.92589,688.6564,167.94435,689.13556,167.88905,689.2831C167.76003,689.6148,166.78313,689.89136,164.88463,690.131C163.31792,690.3337,162.89397,690.20465,163.35478,689.65173C163.70497,689.20935,166.02742,687.7348,166.63567,687.5505C167.61256,687.25555,167.72316,687.31085,167.87062,688.19556 Z M106.012726,688.6564C106.76845,688.74854,107.78221,688.87756,108.27988,688.9513C108.96187,689.025,109.14618,689.1172,109.14618,689.37524C109.14618,689.92816,108.66695,690.1862,107.89279,690.05725C107.28456,689.94666,103.26637,689.3937,103.11891,689.3937C103.08205,689.3937,103.063614,689.19086,103.063614,688.93286C103.063614,688.5089,103.13733,688.47205,103.85617,688.47205C104.28012,688.47205,105.25702,688.5458,106.012726,688.6564 Z M152.57204,690.11255C152.38771,691.43964,152.6642,691.3659,146.80281,691.69763C145.21764,691.77136,145.08864,691.753,144.90431,691.4027C144.64626,690.9235,144.83058,690.00195,145.2361,689.7807C145.40196,689.6886,146.67378,689.5595,148.03777,689.48584C149.40172,689.4121,150.85783,689.3015,151.26335,689.2278C152.51674,689.0066,152.70107,689.13556,152.57204,690.11255 Z M122.232925,689.94666C123.79965,690.03876,126.91464,690.11255,129.14491,690.131C131.37518,690.131,133.38431,690.1862,133.6239,690.2415C133.93727,690.3337,134.0294,690.4996,134.0294,690.9604C134.0294,692.0294,133.91882,692.0479,129.27394,691.8083C121.09013,691.3659,118.17787,691.1447,115.46837,690.7576C114.86009,690.66547,114.74951,690.4627,114.98912,689.83606C115.09972,689.5595,115.32091,689.54114,117.23782,689.65173C118.417496,689.7254,120.66618,689.8545,122.232925,689.94666 Z M181.89738,690.8129C182.91115,691.8636,183.13231,692.3059,182.89272,692.6008C182.67155,692.8773,180.93892,693.2091,177.16035,693.7067C173.78728,694.16754,173.12373,694.186,172.93944,693.8358C172.68135,693.35657,172.53392,691.90045,172.69981,691.6424C172.86568,691.38434,174.39555,691.0341,176.88387,690.66547C177.69487,690.5549,178.69023,690.389,179.09572,690.31525C180.75462,690.00195,181.21538,690.0756,181.89738,690.8129 Z M103.063614,690.88666C103.61658,690.9788,105.03584,691.1816,106.19705,691.3474C108.298294,691.62396,108.77754,691.78986,108.77754,692.2691C108.77754,692.84045,108.04025,692.8773,105.551926,692.45337C101.10982,691.67926,100.354095,691.51337,100.04076,691.3106C99.69055,691.071,99.69055,691.05255,100.13292,690.88666C100.68588,690.66547,101.75493,690.66547,103.063614,690.88666 Z M207.02025,691.60547C207.02025,691.99255,207.11241,692.7483,207.223,693.246C207.352,693.8542,207.352,694.27814,207.24141,694.4809C207.05708,694.8127,205.76686,695.29193,205.01115,695.29193C204.77153,695.29193,204.03423,695.42096,203.35225,695.5499C202.17262,695.808,200.82707,696.06604,197.34343,696.69275C196.44026,696.8586,195.16844,697.02454,194.5602,697.07983C193.56487,697.17194,193.39897,697.13513,193.30681,696.8402C193.14091,696.25037,193.12251,694.0017,193.30681,693.8173C193.45427,693.6699,194.24684,693.4856,198.63368,692.61926C201.54591,692.0294,205.7853,691.05255,205.89586,690.94196C205.93275,690.9051,206.20924,690.8682,206.50414,690.8682C206.98338,690.8682,207.02025,690.9235,207.02025,691.60547 Z M168.38673,692.56396C168.70006,694.11224,168.70006,694.35187,168.3314,694.5546C167.85219,694.79425,163.9999,695.25507,161.60371,695.3288C160.037,695.3841,159.76051,695.3472,159.57619,695.0523C159.29973,694.6099,160.05544,693.17224,160.71901,692.9142C160.99547,692.822,161.97237,692.67456,162.89397,692.61926C163.81557,692.54553,164.84776,692.43494,165.19795,692.3428C165.54817,692.2691,166.37761,692.1953,167.05959,692.1769C168.20241,692.1585,168.31297,692.1953,168.38673,692.56396 Z M117.25627,692.7114C121.86427,693.17224,123.06236,693.2644,128.22331,693.5409C131.2646,693.7252,133.86353,693.9464,133.99254,694.0385C134.36119,694.35187,134.26903,695.29193,133.86353,695.43933C133.1631,695.69745,123.63374,694.9417,118.841415,694.25977C117.82765,694.11224,116.62959,694.0017,116.16879,693.9832C114.5652,693.9464,113.77261,693.44867,114.28871,692.822C114.5652,692.49023,114.86009,692.4718,117.25627,692.7114 Z M152.16652,693.8542C152.4983,694.33344,152.53517,694.9786,152.27711,695.4946C152.09279,695.8264,151.8532,695.84485,148.40642,695.84485C144.95961,695.84485,144.71999,695.8264,144.53566,695.4946C144.27763,694.997,144.29604,694.2413,144.59096,694.057C144.75688,693.9464,147.89027,693.6699,151.39238,693.4856C151.72414,693.46716,151.9822,693.5962,152.16652,693.8542 Z M115.689545,695.64215C119.94734,696.2688,132.00189,697.48535,134.34274,697.5038C134.45335,697.5038,134.65611,697.7987,134.7667,698.1673C135.13533,699.2732,134.91415,699.36536,132.09406,699.1442C130.78539,699.05206,129.16336,698.88617,128.49982,698.794C127.83626,698.70184,126.76721,698.5728,126.10364,698.5175C125.44008,698.4438,124.42633,698.31476,123.81807,698.2226C123.22824,698.112,121.86427,697.90924,120.776794,697.7618C113.93849,696.8033,113.42241,696.7112,113.07219,696.36096C112.81415,696.10297,112.83258,696.0292,113.20123,695.6605C113.459274,695.4025,113.73575,695.29193,113.99379,695.3472C114.215,695.4025,114.98912,695.5315,115.689545,695.64215 Z M184.66219,695.43933C185.23357,695.7896,185.73125,698.0567,185.28886,698.31476C185.0677,698.4622,182.5978,698.75714,179.18788,699.07043C177.62114,699.1995,175.72267,699.3838,175.00383,699.4576C173.43709,699.605,173.40022,699.5682,173.38179,697.7803L173.38179,696.6743L174.11906,696.5453C174.52458,696.4716,176.01756,696.28723,177.43684,696.12134C178.8561,695.95544,180.71773,695.7158,181.58403,695.5684C183.42723,695.29193,184.34886,695.2366,184.66219,695.43933 Z M168.95811,697.31946C169.03181,697.43005,169.12401,697.96454,169.17928,698.4991C169.27144,699.36536,169.23457,699.5129,168.90282,699.69714C168.70006,699.80774,166.4882,699.9921,163.98146,700.1211C159.96327,700.3055,159.4103,700.3055,159.1707,700.04736C158.80208,699.6787,158.61775,698.31476,158.89421,698.0014C159.02324,697.8356,159.79738,697.68805,161.16136,697.5959C162.30415,697.5222,163.9999,697.3931,164.90306,697.31946C167.5204,697.1167,168.82909,697.1167,168.95811,697.31946 Z M153.10658,698.794C153.62267,700.32385,153.5858,700.32385,149.32799,700.2317C147.06087,700.1764,145.56786,700.0658,145.3098,699.91833C144.84901,699.6787,144.62782,698.99677,144.79372,698.3332L144.90431,697.8724L148.84877,697.8724L152.7932,697.8724L153.10658,698.794 Z M117.809235,699.0889C118.7677,699.2364,120.38971,699.476,121.40347,699.605C125.771866,700.2317,127.37544,700.4529,128.59195,700.63715C129.31082,700.7294,130.8591,700.9137,132.05717,701.0058C134.61925,701.227,135.68831,701.44824,135.89104,701.77997C135.98323,701.909,136.05693,702.2961,136.05693,702.60944C136.05693,703.16235,136.00163,703.21765,135.50398,703.21765C134.4902,703.21765,128.79472,702.44354,124.53691,701.70624C122.71214,701.39294,120.7215,701.0796,120.11322,700.9874C119.50496,700.89526,118.63866,700.74774,118.17787,700.63715C117.71707,700.5266,116.07663,700.1948,114.5099,699.8999C112.94316,699.58655,111.560776,699.2548,111.413315,699.1442C111.08154,698.86774,111.413315,698.2779,111.947845,698.2042C112.18747,698.1673,113.20123,698.2963,114.215,698.48065C115.228745,698.665,116.85077,698.94147,117.809235,699.0889 Z M185.73125,701.1902C185.80498,701.3008,185.74968,701.9828,185.63908,702.68317C185.43633,703.9181,185.38103,704.01025,184.77278,704.2499C184.3304,704.4342,182.70839,704.5816,179.33534,704.7291C174.74574,704.91345,174.50615,704.91345,174.26653,704.6001C173.99004,704.19464,173.93474,702.1855,174.21123,702.0196C174.32182,701.94586,175.99913,701.77997,177.95293,701.63257C179.90672,701.48505,181.95268,701.3008,182.50563,701.2086C183.98021,700.9874,185.60222,700.969,185.73125,701.1902 Z M154.06502,702.4067C154.50737,702.462,154.82076,702.72003,155.29997,703.38354C156.03725,704.3789,156.09254,704.6001,155.68706,704.766C155.39214,704.8766,148.09303,704.56323,147.63225,704.4342C147.50322,704.39734,147.17146,704.3052,146.89494,704.2499C146.12083,704.06555,145.4757,702.38824,146.13927,702.2592C146.60005,702.16705,153.38304,702.2961,154.06502,702.4067 Z M169.67696,702.60944C169.73225,702.7937,169.82442,703.32825,169.87971,703.8075C169.99031,704.5448,169.95341,704.69226,169.64009,704.85815C169.10558,705.13464,161.84334,705.13464,161.23509,704.83966C160.36876,704.45264,159.63148,702.66473,160.25816,702.4251C160.36876,702.36975,162.52531,702.3145,165.03209,702.3145C169.21614,702.2961,169.5848,702.3145,169.67696,702.60944 Z M153.65953,706.9041C159.0601,707.25433,158.76518,707.1806,160.53468,708.21277C161.41939,708.7104,162.34102,709.17126,162.59904,709.24493C162.8571,709.30023,163.15202,709.4108,163.24416,709.48456C163.61281,709.76105,166.10115,710.3693,166.4698,710.27716C166.69096,710.22186,166.83842,710.0191,166.83842,709.7795C166.83842,709.4477,166.58037,709.24493,165.5666,708.76575C164.25795,708.1575,163.7234,707.7335,163.96303,707.49396C164.14732,707.328,170.02715,707.43866,170.2299,707.64136C170.43266,707.8441,170.65385,709.07904,171.00404,711.88074C171.1515,713.1525,171.3174,714.4797,171.3727,714.86676C171.53859,715.86206,171.07777,716.0648,168.36827,716.30444C161.47469,716.91266,155.09721,714.7008,150.52608,710.14813C148.81187,708.43396,147.94557,707.2359,148.1115,706.79346C148.20366,706.5539,148.42482,706.517,149.47545,706.6092C150.15742,706.6645,152.03752,706.79346,153.65953,706.9041 Z M183.98021,707.3833C183.98021,707.80725,182.67155,709.632,181.56563,710.75635C179.88829,712.4337,176.29405,714.6087,175.70421,714.2769C175.20656,714.01886,174.46928,707.86255,174.8748,707.45703C174.96693,707.36487,176.33092,707.25433,177.89763,707.2174C179.46437,707.19904,181.47346,707.14374,182.37663,707.1253C183.72215,707.0884,183.98021,707.1253,183.98021,707.3833 Z"/> </g> <g style="fill:rgb(0,0,0); fill-opacity:1.0; stroke-linejoin: miter"> <path d="M115.09972,675.4959C113.58829,676.1595,113.533005,678.9058,115.00755,680.2145C115.61583,680.7306,115.74484,680.7675,116.79547,680.6937C117.47745,680.6569,118.04886,680.5094,118.19629,680.362C119.50496,678.998,119.65245,677.8552,118.693954,676.6387C118.067276,675.8461,116.90605,675.20105,116.150345,675.2194C115.8923,675.2194,115.4315,675.34845,115.09972,675.4959 Z"/> </g> </g> </g> </svg>