<?xml version="1.0" encoding="UTF-8"?>
<svg viewBox="0 0 924.09 661.63" xmlns="http://www.w3.org/2000/svg">
 <g stroke-width=".216">
  <g stroke="#000">
   <path d="m40.304 214.63l3.354 11.964 3.309 11.76 3.334 11.814 3.358 11.862 3.379 11.907 3.4 11.949 3.418 11.986 3.433 12.02 3.449 12.05 3.461 12.076 3.472 12.098 3.481 12.118 3.488 12.132 3.494 12.143 3.497 12.151 3.499 12.154 3.499 12.154 3.497 12.149 3.493 12.142 3.487 12.131 3.481 12.117 3.471 12.092 3.461 12.072 3.447 12.053 3.433 12.013 3.417 11.983 3.398 11.944 3.377 11.904 3.357 11.855 3.332 11.806 3.307 11.756 3.317 11.835 0.398 1.1064 0.605 1.1656 0.74 1.0571 0.851 0.9681 0.946 0.8694 1.026 0.7903 1.101 0.7113 1.172 0.6422 1.238 0.5828 1.302 0.5335 1.367 0.4742 1.429 0.4247 1.492 0.3754 1.55 0.3261 1.61 0.2864 1.667 0.2371 1.723 0.1877 1.776 0.1384 1.828 0.0988 1.877 0.0493h1.925l1.968-0.0394 2.012-0.0988 2.052-0.1483 2.09-0.1976 2.124-0.2469 2.157-0.2963 2.187-0.3557 2.214-0.4149 2.239-0.4643 2.2599-0.5137 2.067-0.5236 20.724-3.3491 20.846-3.4379 20.792-3.4973 20.742-3.5565 20.695-3.6059 20.652-3.6552 20.614-3.6948 20.579-3.7343 20.546-3.7639 20.52-3.7936 20.496-3.8232 20.476-3.8428 20.46-3.8628 20.448-3.8726 20.438-3.8824 20.435-3.8826 20.433-3.8923 20.437-3.8727 20.443-3.8726 20.449-3.8627 20.47-3.843 20.49-3.8232 20.5-3.7937 20.54-3.7639 20.56-3.7343 20.6-3.6849 20.63-3.6552 20.68-3.596 20.71-3.5566 20.77-3.4872 20.82-3.4379 21.21-3.4281 1.66-0.5532 1.47-0.6125 1.4701-0.7114 1.46-0.8298 1.46-0.9286 1.4401-1.0374 1.4199-1.1459 1.41-1.2546 1.38-1.3535 1.35-1.4621 1.3301-1.5808 1.2799-1.6794 1.25-1.7882 1.2101-1.8868 1.1499-2.0055 1.1101-2.1141 1.0499-2.2327 0.99-2.3315 0.92-2.4401 0.86-2.5548 0.78-2.6664 0.71-2.775 0.62-2.8897 0.54-3.0012 0.45-3.1139 0.35-3.2276 0.25-3.342 0.16-3.4558 0.04-3.5713-0.0601-3.6869-0.1899-3.8035-0.35-4.656-187.38-358.53-639.55 97.54-2.746 0.5434-2.564 0.6293-2.397 0.7212-2.239 0.816-2.083 0.9158-1.934 1.0235-1.781 1.1311-1.63 1.2448-1.474 1.3554-1.313 1.4621-1.149 1.5589-0.985 1.6459-0.827 1.7189-0.674 1.7842-0.535 1.8375-0.405 1.8898-0.288 1.9383-0.186 1.9837-0.091 2.0351-0.01 2.0835 0.064 2.1388 0.129 2.1942 0.186 2.2514 0.235 2.3107 0.277 2.374 0.312 2.4362 0.34 2.5014 0.361 2.5676 0.377 2.6358 0.385 2.7039 0.387 2.7731 0.421 3.1218z"/>
   <path d="m41.274 214.44l3.336 11.898 3.309 11.759 3.334 11.813 3.357 11.861 3.38 11.907 3.399 11.949 3.418 11.985 3.433 12.019 3.449 12.05 3.46 12.075 3.472 12.098 3.481 12.118 3.488 12.132 3.494 12.143 3.4969 12.151 3.499 12.154 3.499 12.154 3.497 12.149 3.493 12.142 3.488 12.132 3.481 12.117 3.471 12.092 3.46 12.072 3.448 12.052 3.433 12.013 3.417 11.983 3.398 11.944 3.378 11.904 3.356 11.865 3.333 11.806 3.307 11.756 3.308 11.796 0.364 1.0176 0.545 1.0471 0.673 0.9584 0.78 0.889 0.876 0.8101 0.96 0.7311 1.038 0.6718 1.114 0.6125 1.184 0.563 1.254 0.5038 1.321 0.4643 1.388 0.4051 1.453 0.3754 1.514 0.316 1.576 0.2767 1.636 0.2371 1.6931 0.1878 1.748 0.1383 1.801 0.0889 1.851 0.0493 1.899 0.0099 1.944-0.0493 1.989-0.0988 2.029-0.1383 2.067-0.1977 2.102-0.2469 2.135-0.2963 2.165-0.3458 2.193-0.405 2.217-0.4644 2.24-0.5136 2.098-0.5335 20.766-3.3491 20.843-3.4478 20.788-3.4973 20.739-3.5466 20.693-3.6059 20.65-3.6552 20.612-3.6948 20.576-3.7343 20.545-3.764 20.519-3.7935 20.494-3.8232 20.476-3.843 20.458-3.8626 20.448-3.8727 20.438-3.8825 20.434-3.8824 20.434-3.8924 20.437-3.8824 20.443-3.8627 20.455-3.8627 20.47-3.843 20.48-3.8232 20.51-3.7935 20.54-3.7639 20.56-3.7343 20.6-3.6849 20.64-3.6553 20.68-3.6059 20.72-3.5465 20.77-3.4971 20.82-3.438 21.13-3.4082 1.55-0.5236 1.41-0.5828 1.4199-0.6915 1.41-0.7904 1.41-0.9089 1.39-0.9977 1.3899-1.1163 1.3701-1.2152 1.34-1.3238 1.33-1.4324 1.29-1.5412 1.26-1.6398 1.23-1.7585 1.1799-1.8573 1.14-1.9758 1.0801-2.0746 1.0399-2.1834 0.9701-2.3018 0.9099-2.4106 0.8501-2.5181 0.7699-2.6308 0.6901-2.7424 0.62-2.8551 0.53-2.9677 0.45-3.0822 0.35-3.1959 0.25-3.3104 0.15-3.4242 0.04-3.5426-0.0601-3.6573-0.1799-3.7748-0.3401-4.4446-186.96-357.73-638.83 97.43-2.702 0.5345-2.518 0.6184-2.345 0.7044-2.181 0.7953-2.022 0.8891-1.866 0.9879-1.713 1.0877-1.56 1.1914-1.406 1.2931-1.25 1.392-1.094 1.4839-0.938 1.5668-0.7889 1.6419-0.647 1.7081-0.514 1.7684-0.391 1.8266-0.28 1.881-0.181 1.9353-0.0891 1.9916-0.01 2.0479 0.063 2.1082 0.128 2.1685 0.184 2.2307 0.233 2.2949 0.275 2.3611 0.311 2.4273 0.339 2.4955 0.361 2.5646 0.377 2.6347 0.386 2.7049 0.387 2.777 0.412 3.0576z"/>
   <path d="m42.245 214.24l3.317 11.832 3.308 11.759 3.334 11.812 3.357 11.861 3.38 11.906 3.399 11.948 3.417 11.985 3.434 12.019 3.448 12.05 3.461 12.075 3.472 12.098 3.48 12.117 3.488 12.132 3.494 12.143 3.497 12.15 3.499 12.155 3.499 12.153 3.4969 12.15 3.493 12.143 3.488 12.131 3.481 12.117 3.471 12.092 3.461 12.082 3.447 12.042 3.434 12.023 3.416 11.983 3.399 11.944 3.378 11.904 3.357 11.855 3.332 11.806 3.308 11.756 3.298 11.766 0.331 0.9286 0.486 0.9286 0.604 0.8693 0.71 0.8003 0.806 0.7409 0.893 0.6915 0.976 0.6323 1.055 0.5731 1.132 0.5334 1.204 0.494 1.276 0.4446 1.346 0.3952 1.415 0.3557 1.478 0.316 1.543 0.2767 1.6039 0.2272 1.663 0.1779 1.72 0.1382 1.7729 0.0989 1.825 0.0493h1.875l1.92-0.0493 1.965-0.089 2.005-0.1481 2.045-0.1878 2.08-0.2469 2.113-0.2964 2.143-0.3457 2.172-0.3952 2.196-0.4544 2.218-0.5137 2.131-0.5433 20.807-3.3589 20.84-3.4379 20.785-3.4973 20.736-3.5565 20.69-3.6058 20.648-3.6453 20.609-3.6948 20.575-3.7343 20.543-3.764 20.517-3.8034 20.493-3.8134 20.475-3.843 20.458-3.8627 20.446-3.8726 20.438-3.8825 20.435-3.8824 20.433-3.8924 20.437-3.8824 20.444-3.8627 20.451-3.8627 20.47-3.843 20.49-3.8232 20.51-3.7935 20.54-3.764 20.57-3.7342 20.6-3.6948 20.64-3.6454 20.67-3.6059 20.73-3.5466 20.77-3.4972 20.83-3.4379 21.05-3.3983 1.4401-0.484 1.35-0.5632 1.36-0.6619 1.37-0.7705 1.36-0.8694 1.35-0.978 1.3501-1.0768 1.33-1.1856 1.3099-1.2941 1.29-1.393 1.27-1.5016 1.23-1.6103 1.2001-1.719 1.1599-1.8276 1.12-1.9362 1.0701-2.045 1.01-2.1437 0.96-2.2722 0.9-2.371 0.83-2.4816 0.76-2.5963 0.6901-2.7078 0.61-2.8225 0.5299-2.9341 0.4401-3.0497 0.34-3.1632 0.25-3.279 0.15-3.3944 0.05-3.5121-0.0701-3.6286-0.1799-3.7461-0.3201-4.2332-186.54-356.93-638.1 97.319-2.659 0.5275-2.471 0.6066-2.293 0.6886-2.124 0.7745-1.959 0.8615-1.8 0.9523-1.644 1.0442-1.4901 1.138-1.338 1.231-1.188 1.3218-1.037 1.4078-0.892 1.4887-0.752 1.5639-0.618 1.634-0.493 1.6992-0.378 1.7614-0.272 1.8247-0.176 1.8859-0.088 1.9491-9e-3 2.0124 0.062 2.0775 0.126 2.1428 0.183 2.2109 0.231 2.2781 0.274 2.3483 0.31 2.4184 0.338 2.4905 0.361 2.5606 0.376 2.6338 0.386 2.7068 0.388 2.78 0.404 2.9933z"/>
   <path d="m43.215 214.05l3.299 11.767 3.308 11.759 3.334 11.81 3.357 11.861 3.379 11.905 3.399 11.947 3.417 11.985 3.433 12.018 3.449 12.05 3.46 12.075 3.472 12.097 3.481 12.117 3.488 12.132 3.493 12.143 3.497 12.15 3.499 12.154 3.499 12.154 3.497 12.15 3.494 12.142 3.488 12.132 3.48 12.117 3.472 12.102 3.461 12.072 3.447 12.042 3.434 12.023 3.416 11.983 3.399 11.944 3.3781 11.904 3.357 11.855 3.3329 11.815 3.308 11.756 3.289 11.736 0.296 0.8199 0.427 0.82 0.537 0.7705 0.64 0.7213 0.736 0.6816 0.826 0.6323 0.913 0.5927 0.997 0.5533 1.078 0.5038 1.1559 0.4742 1.231 0.4247 1.304 0.3853 1.376 0.3458 1.443 0.3063 1.509 0.2667 1.572 0.2272 1.6331 0.1777 1.691 0.1383 1.747 0.089 1.799 0.0493h1.849l1.896-0.0493 1.941-0.089 1.983-0.1383 2.022-0.1876 2.058-0.247 2.091-0.2865 2.122-0.3458 2.15-0.3952 2.1739-0.4544 2.197-0.5038 2.163-0.5533 20.849-3.3588 20.836-3.4379 20.783-3.4973 20.733-3.5564 20.687-3.6059 20.646-3.6454 20.607-3.6948 20.573-3.7343 20.541-3.764 20.516-3.8034 20.492-3.8133 20.473-3.843 20.457-3.8627 20.446-3.8727 20.438-3.8824 20.434-3.8825 20.434-3.8923 20.437-3.8825 20.444-3.8726 20.457-3.8528 20.47-3.843 20.49-3.8232 20.51-3.7935 20.54-3.764 20.57-3.7343 20.6-3.6948 20.64-3.6453 20.68-3.6059 20.73-3.5565 20.78-3.4972 20.83-3.4379 20.97-3.3787 1.3301-0.4544 1.2899-0.5335 1.3101-0.6323 1.3099-0.7408 1.3201-0.8398 1.3099-0.9484 1.3-1.0471 1.2999-1.1559 1.28-1.2546 1.26-1.3633 1.23-1.472 1.2101-1.5707 1.1799-1.6893 1.13-1.7882 1.1-1.8968 1.05-2.0054 1-2.1141 0.9399-2.2327 0.89-2.3374 0.8201-2.449 0.75-2.5616 0.6799-2.6743 0.6-2.7879 0.52-2.9015 0.4401-3.0161 0.34-3.1317 0.25-3.2482 0.14-3.3638 0.05-3.4814-0.0701-3.5999-0.17-3.7175-0.3099-4.0218-186.13-356.13-637.37 97.208-2.615 0.5187-2.424 0.5947-2.241 0.6738-2.067 0.7527-1.896 0.8348-1.734 0.9168-1.574 1.0007-1.421 1.0847-1.271 1.1687-1.124 1.2517-0.9821 1.3327-0.845 1.4107-0.714 1.4858-0.59 1.558-0.473 1.6301-0.3651 1.6982-0.263 1.7683-0.171 1.8365-0.086 1.9057-9e-3 1.9758 0.061 2.0469 0.125 2.1181 0.18 2.1902 0.23 2.2623 0.273 2.3364 0.308 2.4095 0.338 2.4836 0.36 2.5578 0.377 2.6328 0.385 2.7088 0.389 2.783 0.395 2.9291z"/>
   <path d="m44.185 213.03c34.84 123.82 74.65 257.89 109.49 381.7 2.221 7.8896 22.903 11.24 46.411 5.0501 223.15-35.429 435.91-82.453 659.06-117.88 12.87-3.8514 28.22-24.396 24.45-65.452l-184.11-353.39-636.65 96.568c-28.488 5.0098-22.725 22.601-18.647 53.408z"/>
   <g fill="#fff">
    <path d="m50.643 205.72l99.784 333.66c2.096 7.0141 20.34 10.047 41.218 4.5148 198.17-31.643 467.31-80.89 665.49-112.53 14.61-1.712 26.11-9.1184 19.64-28.678l-177.02-339.63-635.22 96.148c-25.299 4.4733-23.45 20.475-13.885 46.517z"/>
    <path d="m704.4 235.84l51.09-7.3639 74.98 142.95-52.66 10.587-73.41-146.18z"/>
   </g>
   <path d="m754.95 268.64l2.85-0.1344 37.41 72.708-2.9801 0.6688-37.28-73.242z"/>
   <path d="m648.01 125.86c17.99 1.9422 31.16 10.658 29.42 19.461-1.74 8.8033-17.73 14.367-35.72 12.425-17.98-1.9422-31.16-10.658-29.42-19.461 1.74-8.8042 17.74-14.368 35.72-12.425z"/>
   <path d="m649.58 107.69c49.49 7.4232 85.75 40.728 80.96 74.371s-48.8 54.906-98.29 47.482c-49.495-7.4241-85.749-40.728-80.963-74.371 4.7859-33.643 48.803-54.906 98.293-47.482z"/>
   <g fill="#fff">
    <path d="m649.15 104.93c49.27 7.111 85.37 39.012 80.6 71.237-4.76 32.226-48.59 52.592-97.86 45.481-49.275-7.111-85.37-39.012-80.605-71.237 4.765-32.226 48.585-52.592 97.865-45.481z"/>
    <path d="m666.21 155.37c-6.66 2.8156-16.02 4.0505-26 2.9727-17.99-1.9422-31.16-10.658-29.42-19.461 0.83997-4.2717 5.0399-7.7817 11.2-10.04-5.33 2.2584-8.92 5.5313-9.7 9.4444-1.7301 8.8052 11.44 17.52 29.42 19.463 9.25 0.99876 17.97 0.011887 24.5-2.3789z"/>
   </g>
   <path d="m647.32 116.42c38.34 5.4562 66.42 29.931 62.71 54.655-2.01 13.418-12.97 24.156-28.71 30.299-10.08 3.9378-22.13 5.9878-35.03 5.6439-4.0601-0.1077-8.2001-0.45247-12.39-1.0492-38.339-5.4552-66.421-29.931-62.713-54.654 3.707-24.724 37.803-40.35 76.133-34.895z"/>
   <path d="m647.83 114.15c36.39 4.8082 63.05 26.377 59.53 48.168-3.51 21.789-35.88 35.56-72.28 30.752-36.389-4.8082-63.049-26.377-59.529-48.166 3.5189-21.79 35.889-35.561 72.279-30.753z" fill="#fff"/>
   <path d="m647.02 125.66c20.25 2.9044 35.08 15.933 33.12 29.094-1.96 13.162-19.96 21.48-40.21 18.576-20.25-2.9044-35.09-15.933-33.13-29.094 1.96-13.162 19.97-21.48 40.22-18.576z"/>
  </g>
  <path d="m693.67 97.714c-5.3201 12.14-19.76 17.492-32.26 11.953-12.49-5.5382-20.19-20.862-12.99-32.018l14.41-22.365c6.4099-9.9274 17.87-12.618 28.98-7.6899 11.12 4.9287 16.3 17.69 11.56 28.489-3.48 7.9418-6.15 13.542-9.7 21.631z" stroke="#fff"/>
  <g stroke="#000">
   <g fill="#fff">
    <path d="m677.1 72.784c10.92 4.3379 16 15.566 11.35 25.074-4.65 9.5066-17.27 13.699-28.18 9.3614-10.92-4.3379-16-15.566-11.35-25.074 4.64-9.5076 17.26-13.7 28.18-9.3614z"/>
    <path d="m646.51 126.46c17.98 1.9432 31.15 10.658 29.41 19.461-1.73 8.8033-17.73 14.367-35.71 12.425-17.99-1.9422-31.16-10.658-29.42-19.461 1.74-8.8032 17.73-14.367 35.72-12.425z"/>
    <path d="m656.63 92.101c4.25-17.926 28.19-6.7908 19.23 7.3115-5.59-4.2006-12.2-6.2772-19.23-7.3115z"/>
    <path d="m375.77 121.28c150.24 0 272.08 83.922 272.08 187.4s-121.84 187.4-272.08 187.4-272.08-83.918-272.08-187.4 121.84-187.4 272.08-187.4z"/>
   </g>
   <path d="m377.93 121.28c149.04 0 269.91 82.478 269.91 184.18s-120.87 184.18-269.91 184.18-269.91-82.478-269.91-184.18 120.87-184.18 269.91-184.18z"/>
   <path d="m376.08 125.57c135.62 0 245.6 74.577 245.6 166.54 0 91.96-109.98 166.54-245.6 166.54s-245.61-74.578-245.61-166.54c0-91.961 109.98-166.54 245.61-166.54z"/>
   <path d="m527.6 160.88c59.638 30.387 98.223 78.752 98.223 133.22 0 91.96-109.98 166.54-245.61 166.54-57.018 0-109.5-13.184-151.19-35.297 40.979 20.782 91.844 33.09 146.94 33.09 135.62 0 245.6-74.577 245.6-166.54 0-53.162-36.756-100.52-93.973-131.01z" fill="#fff"/>
   <path d="m682.54 136.9c0 10.992-13.8 19.905-30.82 19.905s-36.98-11.415-35.46-22.303l3.34-23.866c1.53-10.888 15.61-18.567 32.63-18.567 17.01 0 30.82 8.9139 30.82 19.905 0 10.75-0.51001 13.872-0.51001 24.925z"/>
   <g fill="#fff">
    <path d="m682.93 111.47c0.039917 0.42287 0.069946 0.84862 0.069946 1.2784 0 11.45-14.15 20.735-31.59 20.735s-31.59-9.2853-31.59-20.735c0-0.42973 0.02002-0.85549 0.060059-1.2784 1.01 10.854 14.74 19.457 31.53 19.457s30.52-8.6027 31.52-19.457z"/>
    <path d="m631.42 141.88c8.4399-4.3942 16.23 3.9121 12.47 11.521 0.23999-0.74092 0.39002-1.5243 0.43005-2.3364 0.2699-5.1697-3.7301-9.5758-8.92-9.8406-1.41-0.072128-2.75 0.16792-3.98 0.65596z"/>
   </g>
   <path d="m520.6 98.118c17.161 1.8217 30.158 11.757 29.024 22.186-1.135 10.429-15.972 17.41-33.132 15.588-17.161-1.8207-30.158-11.756-29.024-22.186 1.135-10.429 15.971-17.41 33.132-15.588z" fill="none"/>
   <path d="m373.06 121.91c134.35 0 243.3 74.577 243.3 166.54 0 91.962-108.95 166.54-243.3 166.54s-243.31-74.577-243.31-166.54c0-91.961 108.96-166.54 243.31-166.54z" fill="#fff"/>
  </g>
  <path d="m377.74 222.91c43.292 0 78.4 24.524 78.4 54.764 0 30.241-35.108 54.765-78.4 54.765s-78.4-24.524-78.4-54.765c0-30.24 35.108-54.764 78.4-54.764z" stroke="#ff0"/>
  <path d="m377.74 266.08c9.17 0 16.607 5.1954 16.607 11.6 0 6.4056-7.437 11.6-16.607 11.6s-16.607-5.1944-16.607-11.6c0-6.4046 7.437-11.6 16.607-11.6z" fill="#fff" stroke="#fff"/>
 </g>
 <g stroke="#000">
  <path d="m371.21 277.57c0.49396-5.9156-0.73401-14.936 4.913-18.052 1.331-0.89401 2.721-0.42679 3.65 0.23117 3.654 2.5903 4.787 10.012 3.85 18.484-4.467 3.4142-8.617 3.2562-12.413-0.6629z" fill="#fff" stroke-width="2"/>
  <g stroke-width=".216">
   <path d="m520.6 98.118c17.161 1.8217 30.158 11.757 29.024 22.186-1.135 10.429-15.972 17.41-33.132 15.588-17.161-1.8207-30.158-11.756-29.024-22.186 1.135-10.429 15.971-17.41 33.132-15.588z" fill="none"/>
   <path d="m704.4 235.84l51.09-7.3639 74.98 142.95-4.1 0.8239-73.07-139.33-46.97 6.7682-1.9301-3.8489z"/>
  </g>
  <path d="m754.91 294.38l10.62 20.531 26.57-3.8015 0.4701-2.9706-2.6901-5.8623 0.79-12.118-3.16-5.472-25.95 2.8166-0.7201 4.6728-4.8099 0.2924-0.2 0.0118-0.3 0.0187-0.62 0.0376v1.8435z" fill="#fff"/>
  <g stroke-width=".216">
   <path d="m520.6 98.118c17.161 1.8217 30.158 11.757 29.024 22.186-0.24902 2.287-1.157 4.408-2.604 6.3068 0.39795-3.8864-2.469-6.9895-2.469-6.9895l-51.905 6.2673c-3.683-3.6138-5.648-7.8549-5.178-12.183 1.135-10.429 15.971-17.41 33.132-15.588z" fill="#fff"/>
   <path d="m492.56 125.86c14.675-2.0074 31.118-3.5466 45.793-5.554-13.348-7.3342-30.496-9.2508-48.811 1.7081 0.66901 1.2378 1.765 2.5083 3.018 3.8459z"/>
   <path d="m629.91 145.78c6.92-1.2863 12.83 0.1057 11.99 9.3733-9.6899 10.414-14.36 23.237-14.63 34.759 0.58997 22.54 2.92 56.264-4.47 67.62-10.23 21.709-33.532 29.557-48.385 42.446 0.78992 3.3203-0.45105 6.6594-1.467 7.8993-5.105 3.838-8.744 7.0082-13.849 10.846 0.045044 1.0719 0.090088 2.1428 0.13501 3.2137-5.195 3.7491-10.391 7.4982-15.587 11.247 5.4989 2.859 9.351 5.9492 12.741 9.1055 0.63098 1.3534 0.35998 2.1112-0.81299 2.2762-4.079-4.4406-9.569-8.3231-18.163-10.98-7.0481 4.9988-14.096 9.9976-21.144 14.996-0.13501 3.1248-0.271 6.2496-0.40601 9.3733-4.247 2.4549-8.494 4.9099-12.741 7.3649-0.40698-0.044495-0.81299-0.089905-1.22-0.1344-2.846 1.7852-5.693 3.5713-8.539 5.3564-0.85797-0.31216-1.717-1.0363-2.575-1.3485 0.43896-6.5212-4.142-11.848-5.39-4.0623-1.129-0.6698-2.259-1.3396-3.388-2.0094 0.22601-4.0613 0.69098-9.0048 0.91699-13.067 1.445-1.5619 3.723-2.5073 5.169-4.0692l-9.223-7.8479-0.013-2.5439c7.591-5.7575 15.181-11.515 22.771-17.273 2.621 1.3209 5.241 1.6666 7.861-0.13434 10.572-6.6506 21.144-13.301 31.716-19.951 1.537 0.80316 3.073 1.6063 4.609 2.4095 5.015-3.6592 10.03-7.3194 15.045-10.98 1.852-0.9079 3.7051-0.55124 5.557 1.0709 12.695-9.2833 25.391-18.567 38.082-27.851 6.5-4.251 11.41-14.493 9.76-49.409 0.38-16.376-0.82996-32.537 5.7-49.409 2.89-5.6232 7.05-12.665 9.9501-18.289z"/>
   <path d="m728.66 265.03c1.2 0 2.17 0.71921 2.17 1.6064 0 0.88812-0.97009 1.6073-2.17 1.6073-1.2 0-2.17-0.71915-2.17-1.6073 0-0.88718 0.97009-1.6064 2.17-1.6064z"/>
   <g fill="#fff">
    <path d="m546.93 300.25c1.291-0.19464 2.528-0.64905 3.82 0.00589 5.062-3.3994 9.7369-6.7997 14.799-10.199-2.163-0.45447-3.257-0.44754-5.7639 0.96814-4.0549 2.8886-8.801 6.3364-12.855 9.2251z"/>
    <path d="m559.36 317.52c0.59192-1.1499 0.45898-3.3549 0.23694-4.7716 4.858-3.678 9.595-6.9934 14.454-10.67-0.2439 2.1714-0.83093 4.2954-2.979 6.2011-4.0509 2.8936-7.662 6.3473-11.712 9.2409z"/>
    <path d="m627.17 219.91c1.71 33.777-9.37 49.036-24.99 58.527 24.9-12.409 26.66-33.671 24.99-58.527z"/>
    <path d="m639.19 147.67c-17 24.842-15.11 46.829-14.94 63.703 0.18005 16.873 1 29.299-1.22 35.457-8.04 22.291-28.969 34.882-49.588 48.442-0.10498 0.069153-0.19898 0.25592-0.31506 0.20749-0.52002-0.21539-0.81592-0.15213-0.98999 0.059265-0.146 0.17584-0.20801 0.45343-0.24792 0.75769-0.018066 0.1344-0.229 0.15118-0.34302 0.22626-4.756 3.1485-9.475 6.3671-13.993 9.7852-1.628-1.9857-3.4711-3.8657-5.787-5.5125 4.7529-3.266 9.5068-6.533 14.26-9.8 0.06604-0.03653 0.12903-0.083984 0.19202-0.13434 0.27197-0.21832 0.52893-0.5098 0.85095-0.46436 1.154 0.16202 1.6061-0.10074 1.358-0.7883-0.031982-0.087982 0.16199-0.094849 0.24304-0.1423 28.203-16.513 46.44-33.687 45.87-63.217-0.65002-33.81-6.52-48.539 14.73-80.009 4.74-1.4759 8.05-0.99972 9.92 1.4295z"/>
    <path d="m99.826 176.52c10.59 0 19.179 5.9067 19.179 13.19 0 7.2829-8.589 13.19-19.179 13.19s-19.179-5.9066-19.179-13.19c0-7.2829 8.589-13.19 19.179-13.19z"/>
   </g>
   <path d="m99.876 185.77c9.121 0 16.517 3.8331 16.517 8.5592 0 4.7271-7.3961 8.5602-16.517 8.5602-9.121 0-16.518-3.8331-16.518-8.5602 0-4.7262 7.397-8.5592 16.518-8.5592z"/>
   <path d="m99.559 186.59c5.743 0 10.4 2.4135 10.4 5.389v5.3525c0 2.9775-4.657 5.39-10.4 5.39-5.744 0-10.4-2.4125-10.4-5.39v-5.3525c0-2.9755 4.656-5.389 10.4-5.389z" fill="#fff"/>
  </g>
 </g>
 <g stroke-width=".216">
  <path d="m194.63 434.16c13.23 0 23.96 7.266 23.96 16.225 0 9.9858 1.354 12.1 1.354 21.248 0 8.9603-11.032 16.221-24.637 16.221-13.604 0-24.636-7.2611-24.636-16.221v-21.248c0-8.9593 10.729-16.225 23.959-16.225z" stroke="#fff"/>
  <g stroke="#000">
   <path d="m194.81 434.23c13.081 0 23.69 7.027 23.69 15.693 0 8.6659-10.609 15.692-23.69 15.692s-23.689-7.0261-23.689-15.692 10.608-15.693 23.689-15.693z" fill="none"/>
   <g fill="#fff">
    <path d="m218.5 450.3c0.005005 0.13339 0.007996 0.26675 0.007996 0.40109 0 9.1007-10.609 16.48-23.69 16.48s-23.689-7.3796-23.689-16.48c0-0.13434 0.002991-0.2677 0.006958-0.40109 0.30603 8.4901 10.876 14.59 23.764 14.59s23.294-6.0994 23.6-14.59z"/>
    <path d="m479.04 335.74l24.788 17.321 22.067-16.923 0.907-5.475 30.851-21.09-16.589-11.308c-10.606 6.6772-21.213 13.354-31.819 20.031-2.232 1.312-4.795 1.2942-7.509 0.21634l-22.696 17.228z"/>
   </g>
   <path d="m764.31 305.57l25.44-3.3045 0.87-11.98-24.74 3.4349-4.12-6.0805 3.3 6.1932-0.75 11.737z"/>
  </g>
  <path d="m109.4 191.06c0.036987 0.13734 0.057007 0.27664 0.057007 0.41791 0 2.1378-4.429 3.8726-9.891 3.8726-5.461 0-9.89-1.7348-9.89-3.8726 0-0.14127 0.019958-0.28056 0.057007-0.41791 0.53198 1.9432 4.732 3.4557 9.833 3.4557 5.102 0 9.302-1.5125 9.834-3.4557z" fill="#fff" stroke="#fff"/>
 </g>
 <g stroke="#000">
  <g stroke-width=".216">
   <path d="m765.81 310.76l0.0599 4.1502 26.38-3.6819-0.0499-3.7886-25.59 3.2196-2.27-5.2557 1.4701 5.3564z"/>
   <path d="m671.41 84.024c-0.72998-0.97507-2.33-1.1411-3.37-1.0235-1.59 3.2156-3.27 6.7662-4.86 9.9808-0.28003 1.3189 1.6 0.98302 2.64 1.2843 1.6-3.2147 3.99-7.027 5.59-10.242z"/>
   <path d="m165.02 509.5l-0.092-3.9714 65.31-6.6783 7.781 21.606-0.1 3.9615-65.488 10.907-7.411-25.824z"/>
   <path d="m519.34 320.12c2.792 0 5.0559 1.5184 5.0559 3.3895 0 1.8721-2.2639 3.3896-5.0559 3.3896-2.7921 0-5.057-1.5175-5.057-3.3896 0-1.8711 2.2649-3.3895 5.057-3.3895z"/>
   <path d="m541.02 305.86c3.49 0 6.3209 1.6428 6.3209 3.6691 0 2.0262-2.8309 3.6691-6.3209 3.6691s-6.321-1.6429-6.321-3.6691 2.831-3.6691 6.321-3.6691z"/>
   <g fill="#fff">
    <path d="m540.2 306.93c2.6431 0 4.786 1.4364 4.786 3.2077s-2.1429 3.2087-4.786 3.2087c-2.642 0-4.785-1.4374-4.785-3.2087s2.1431-3.2077 4.785-3.2077z"/>
    <path d="m483.02 350.15l10.507 8.8121-0.16 11.32 1.925-10.981 6.666-4.0573-7.227 2.0825-11.711-7.1761z"/>
   </g>
  </g>
  <path d="m165.02 505.49l65.218-10.65 7.681 25.557-65.488 10.916-7.411-25.824z" fill="#fff"/>
  <path d="m250.93 510.71l-0.031-1.3732 22.561-2.3117 2.688 7.4686-0.034 1.3633-22.624 3.7737-2.56-8.9208z" stroke-width=".216"/>
  <path d="m250.93 509.32l22.53-3.6751 2.654 8.832-22.624 3.7639-2.56-8.9207z" fill="#fff"/>
  <path d="m286.82 504.8l-0.032-1.3732 22.562-2.3117 2.688 7.4588-0.035 1.3731-22.623 3.7739-2.56-8.9209z" stroke-width=".216"/>
  <path d="m286.82 503.41l22.53-3.675 2.653 8.832-22.623 3.7639-2.56-8.9208z" fill="#fff"/>
  <g stroke-width=".216">
   <path d="m633.42 143.15c-20.91 26.771-16.27 49.617-17.66 66.215-3.3101-23.527 1.9299-46.746 17.66-66.215z"/>
   <path d="m374.05 278.89s-1.005-16.296 3.155-18.989-3.586 11.336-1.004 19.697c-0.784 3.2216-3.274-2.4214-2.151-0.70831z"/>
   <path d="m761.02 291.99l-1.02 5.3238-4.73-4.8121 5.75-0.5117z"/>
  </g>
 </g>
</svg>
